<svg id="a7551dcf-6932-42d0-bd76-f072aca1f81f" data-name="Layer 1" xmlns="http://www.w3.org/2000/svg" viewBox="0 0 96.96 71.29"><defs><style>.e7ae1a4a-b42d-40f1-a478-a0db058e5c89{fill:#fff;}.e0ac955f-3757-4886-b5ee-b5bfedd26ebc,.e7ae1a4a-b42d-40f1-a478-a0db058e5c89{stroke:#1d1d1b;stroke-miterlimit:10;stroke-width:0.75px;}.e0ac955f-3757-4886-b5ee-b5bfedd26ebc{fill:none;stroke-linecap:round;}.b6910d2a-c43d-47de-9210-b806bcee4e41{fill:#5db4b3;}.fe502593-3450-4370-aec0-3f765d1a26c8{fill:#1d1d1b;}</style></defs><title>bird-01</title><path class="e7ae1a4a-b42d-40f1-a478-a0db058e5c89" d="M15.16,20.27A11.58,11.58,0,0,1,17,9.47a12.76,12.76,0,0,1,9-5.24c4.4-.4,8.65,1.55,12.45,3.81s7.45,4.9,11.69,6.13a34.07,34.07,0,0,0,8.66,1.06c8.7.23,17.75-.33,25.44-4.4A2.62,2.62,0,0,1,86,10.37a2.52,2.52,0,0,1,1.1.82l6.34,6.92A55.84,55.84,0,0,0,68.38,36a31,31,0,0,1-3.26,3.86c-4,3.72-10,4.18-15.53,4.09a41.5,41.5,0,0,1-8.76-.85A33,33,0,0,1,26.27,35C22.11,31.17,16.89,26,15.16,20.27Z"/><path class="e7ae1a4a-b42d-40f1-a478-a0db058e5c89" d="M14.69,14.85c-3,2.76-6.63,6-9.58,8.89l11.22-.6"/><path class="e0ac955f-3757-4886-b5ee-b5bfedd26ebc" d="M48.36,43.92l.76,20.37h0c-1.65.86-3.12,1.46-4.7,2.43"/><path class="e0ac955f-3757-4886-b5ee-b5bfedd26ebc" d="M48.39,67.43a24.83,24.83,0,0,1,.71-3.07c.68.65,1.41,1.25,2.09,1.89a2.84,2.84,0,0,1,.7.88"/><circle class="b6910d2a-c43d-47de-9210-b806bcee4e41" cx="25.6" cy="16.82" r="4.91"/><circle class="fe502593-3450-4370-aec0-3f765d1a26c8" cx="24.98" cy="17.6" r="1.7"/></svg>