<svg id="bcc9eea2-6dac-499a-89d2-0f72f7cfcecb" data-name="Layer 1" xmlns="http://www.w3.org/2000/svg" viewBox="0 0 211.65 104.6"><defs><style>.a80813d1-5d96-46e5-bccb-2c80c42f1883,.bfa7c502-2aa4-44fc-a926-33ec85e65822,.eac1c129-c0c3-41bf-9d27-9070b5b9560e{fill:#fff;}.eac1c129-c0c3-41bf-9d27-9070b5b9560e,.ec925295-e845-4f06-b999-53e635d16541{stroke:#1d1d1b;stroke-miterlimit:10;stroke-width:0.5px;}.a032bdf6-c2bd-40dc-b3df-695742fb7da6,.bfa7c502-2aa4-44fc-a926-33ec85e65822{opacity:0.7;}.e1b3ddea-f1ae-4cb9-9dcd-8b2cdd7e43d0{fill:#1d1d1b;}.a032bdf6-c2bd-40dc-b3df-695742fb7da6{fill:#3cb9be;}.e4b782ae-6fae-4674-9c94-35396e41bea4,.ec925295-e845-4f06-b999-53e635d16541{fill:none;}</style></defs><title>cat-2</title><path class="eac1c129-c0c3-41bf-9d27-9070b5b9560e" d="M145.39,81.87c-17.12-3.16-32.56-6-50-6.05S60.26,78.91,45.18,87.61c-3.82,2.2-7.88,4.81-12,6.21a2.9,2.9,0,0,1-2.57-5.12c7-5.06,15.27-8.06,22.61-12.64a48.12,48.12,0,0,0,9-7.86,2.57,2.57,0,0,0-1.9-4.27c-12.45-.12-25,4.69-36.58,9.32-6.16,2.47-12.31,5.62-18.65,7.33-4.95,1.34-7.28-5.9-2.51-7.77l.13,0C25.4,64,42.55,56,66,49.71L110.86,35.4c8-4.95,33.75-4.92,43-3.06,6.24,1.25,12.48,3,17.88,6.36s9.93,8.53,11.37,14.72c1.65,7-.79,14.35-.79,21.58,0,2.39.64,5.28,2.91,6a5.36,5.36,0,0,0,3.3-.25C198.12,77.6,203.3,65,198.71,56c4.19.47,7.55,4.24,8.35,8.38s-.59,8.48-2.92,12A24.29,24.29,0,0,1,184.77,87c-9.06.19-18-4.76-26.85-3-4.38.84-8.13,3.61-12.33,5.11A106.66,106.66,0,0,1,118,94.31a2.46,2.46,0,0,1-.85-4.79,242.43,242.43,0,0,1,28.2-7.65"/><path class="a80813d1-5d96-46e5-bccb-2c80c42f1883" d="M61.58,32.78a22.33,22.33,0,0,0,3.09-1.64,8.78,8.78,0,0,1,10.8,2.3,10.8,10.8,0,0,1-4,2.49,8.8,8.8,0,0,1-2.4.27,14.56,14.56,0,0,1-4-.44C63.46,35.29,62.78,34.08,61.58,32.78Z"/><path class="a80813d1-5d96-46e5-bccb-2c80c42f1883" d="M67.72,36.26a11.92,11.92,0,0,1-2.58-.41,5.72,5.72,0,0,1-2.94-2.22c-.22-.25-.44-.52-.69-.78l-.1-.11.14,0a10.63,10.63,0,0,0,2-1c.36-.22.74-.44,1.12-.64a8.86,8.86,0,0,1,10.91,2.32l.06.07-.07.06a11,11,0,0,1-4,2.51,8.8,8.8,0,0,1-2.43.27C68.61,36.29,68.15,36.28,67.72,36.26Zm-6-3.43c.21.23.4.46.59.68a5.66,5.66,0,0,0,2.85,2.16,13.83,13.83,0,0,0,3.92.43,8.44,8.44,0,0,0,2.38-.26,10.72,10.72,0,0,0,3.85-2.41,8.79,8.79,0,0,0-4.88-3,8.7,8.7,0,0,0-5.74.76c-.38.19-.75.41-1.11.63A10.6,10.6,0,0,1,61.75,32.83Z"/><path class="a80813d1-5d96-46e5-bccb-2c80c42f1883" d="M67.72,36.26a11.92,11.92,0,0,1-2.58-.41,5.72,5.72,0,0,1-2.94-2.22c-.22-.25-.44-.52-.69-.78l-.09-.11.13,0a9.53,9.53,0,0,0,2-1c.37-.22.74-.44,1.12-.64a8.86,8.86,0,0,1,10.91,2.32l.06.07-.07.06a11.08,11.08,0,0,1-4,2.51,8.8,8.8,0,0,1-2.43.27C68.61,36.29,68.15,36.28,67.72,36.26Zm-6-3.43c.22.23.41.46.6.68a5.66,5.66,0,0,0,2.85,2.16,14.17,14.17,0,0,0,3.92.44,8.83,8.83,0,0,0,2.38-.27,10.72,10.72,0,0,0,3.85-2.41,8.66,8.66,0,0,0-10.62-2.2c-.38.19-.75.41-1.11.63A11,11,0,0,1,61.74,32.83Z"/><path class="a80813d1-5d96-46e5-bccb-2c80c42f1883" d="M67.72,36.35a12.31,12.31,0,0,1-2.61-.41,5.83,5.83,0,0,1-3-2.25c-.22-.25-.44-.51-.69-.78l-.19-.21.27-.09a10.21,10.21,0,0,0,1.95-1c.36-.22.73-.45,1.12-.64a9,9,0,0,1,11,2.34l.11.14-.13.12a11.21,11.21,0,0,1-4,2.53,9,9,0,0,1-2.45.28C68.6,36.39,68.15,36.38,67.72,36.35Zm-5.81-3.49.5.59a5.57,5.57,0,0,0,2.8,2.13,13.68,13.68,0,0,0,3.9.43,8.56,8.56,0,0,0,2.35-.26,10.4,10.4,0,0,0,3.75-2.33,8.57,8.57,0,0,0-10.45-2.11c-.38.19-.75.41-1.1.63A11.21,11.21,0,0,1,61.91,32.86Z"/><circle class="a80813d1-5d96-46e5-bccb-2c80c42f1883" cx="69.29" cy="33.51" r="1.26"/><path class="a80813d1-5d96-46e5-bccb-2c80c42f1883" d="M69.21,34.87a1.36,1.36,0,1,1,1.43-1.28A1.37,1.37,0,0,1,69.21,34.87Zm.14-2.52a1.17,1.17,0,1,0,1.1,1.23A1.16,1.16,0,0,0,69.35,32.35Z"/><path class="a80813d1-5d96-46e5-bccb-2c80c42f1883" d="M69.21,34.86a1.35,1.35,0,0,1,.16-2.7,1.37,1.37,0,0,1,1.27,1.43A1.35,1.35,0,0,1,69.21,34.86Zm.14-2.51a1.17,1.17,0,1,0,1.1,1.23A1.16,1.16,0,0,0,69.35,32.35Z"/><path class="a80813d1-5d96-46e5-bccb-2c80c42f1883" d="M69.2,35a1.45,1.45,0,1,1,1.53-1.36A1.44,1.44,0,0,1,69.2,35Zm.15-2.52a1.08,1.08,0,1,0,1,1.14A1.09,1.09,0,0,0,69.35,32.44Z"/><path class="a80813d1-5d96-46e5-bccb-2c80c42f1883" d="M83.62,41.52a3.6,3.6,0,0,0,.16-2.1,39.85,39.85,0,0,0-5.43-.76.69.69,0,0,0-.65.19,1.11,1.11,0,0,0-.18.51,5.41,5.41,0,0,0,1.2,3.77c.66.93,1.75,2.8,2.79,2A11.34,11.34,0,0,0,83.62,41.52Z"/><path class="a80813d1-5d96-46e5-bccb-2c80c42f1883" d="M80.94,45.43h-.1c-.76-.13-1.46-1.16-2-1.92l-.22-.32a5.34,5.34,0,0,1-1.21-3.83,1.12,1.12,0,0,1,.2-.55.77.77,0,0,1,.73-.23,38.49,38.49,0,0,1,5.44.76h.06v.06a3.68,3.68,0,0,1-.16,2.15h0a11.47,11.47,0,0,1-2.14,3.68A1,1,0,0,1,80.94,45.43Zm-2.63-6.68a.61.61,0,0,0-.54.16,1,1,0,0,0-.15.47,5.17,5.17,0,0,0,1.17,3.69l.23.33c.49.72,1.17,1.72,1.85,1.83a.72.72,0,0,0,.59-.15,11.25,11.25,0,0,0,2.07-3.59h0a3.5,3.5,0,0,0,.18-2,40.65,40.65,0,0,0-5.36-.75Z"/><path class="a80813d1-5d96-46e5-bccb-2c80c42f1883" d="M78.31,38.57h0a39.63,39.63,0,0,1,5.43.76h0l0,0a3.68,3.68,0,0,1-.17,2.17h0a11.24,11.24,0,0,1-2.14,3.67c-1,.73-2-.75-2.65-1.72l-.22-.32a5.32,5.32,0,0,1-1.21-3.84,1.25,1.25,0,0,1,.19-.56A.73.73,0,0,1,78.31,38.57Zm5.42.93a37.64,37.64,0,0,0-5.38-.75.62.62,0,0,0-.6.17.84.84,0,0,0-.16.46,5.14,5.14,0,0,0,1.18,3.69l.22.32c.64.93,1.6,2.35,2.49,1.69a11.09,11.09,0,0,0,2.08-3.59A3.49,3.49,0,0,0,83.73,39.5Z"/><path class="a80813d1-5d96-46e5-bccb-2c80c42f1883" d="M80.94,45.52h-.11c-.78-.14-1.5-1.18-2-1.95l0,0-.2-.3a5.43,5.43,0,0,1-1.23-3.9,1.37,1.37,0,0,1,.22-.61.78.78,0,0,1,.73-.25h.06a38.49,38.49,0,0,1,5.44.76l.1,0,0,.1a3.87,3.87,0,0,1-.17,2.23,11.48,11.48,0,0,1-2.17,3.72A1,1,0,0,1,80.94,45.52ZM78.3,38.84c-.22,0-.38,0-.48.14a.81.81,0,0,0-.14.41A5.14,5.14,0,0,0,78.84,43l.23.33c.49.71,1.16,1.69,1.81,1.8a.64.64,0,0,0,.54-.14,11.09,11.09,0,0,0,2-3.55,3.44,3.44,0,0,0,.18-1.87,38.11,38.11,0,0,0-5.31-.74Z"/><path class="a80813d1-5d96-46e5-bccb-2c80c42f1883" d="M121.5,46.15a204.18,204.18,0,0,0-22.74-2.46V43.5A207.22,207.22,0,0,1,121.53,46Z"/><path class="a80813d1-5d96-46e5-bccb-2c80c42f1883" d="M121.57,46.26h-.09a206.16,206.16,0,0,0-22.73-2.47h-.09l0-.38h.09a204.73,204.73,0,0,1,22.77,2.47h.1Z"/><path class="a80813d1-5d96-46e5-bccb-2c80c42f1883" d="M119.18,51.8a110.34,110.34,0,0,0-21.25-6.44l0-.19a110.78,110.78,0,0,1,21.29,6.46Z"/><path class="a80813d1-5d96-46e5-bccb-2c80c42f1883" d="M119.23,51.93l-.09,0a109.94,109.94,0,0,0-21.23-6.44l-.09,0,.07-.37.09,0a110.08,110.08,0,0,1,21.31,6.47l.08,0Z"/><path class="a80813d1-5d96-46e5-bccb-2c80c42f1883" d="M102.69,42v-.18c3.69,0,7.43,0,11.12,0a12.38,12.38,0,0,1,2.94.24h0l.35.1,0,.18a11.48,11.48,0,0,0-3.24-.33C110.11,41.92,106.37,41.92,102.69,42Z"/><path class="a80813d1-5d96-46e5-bccb-2c80c42f1883" d="M102.59,42.05v-.38h.09c3.69,0,7.43,0,11.12,0a12.89,12.89,0,0,1,2.87.22h0l.09,0,.44.13-.11.36-.09,0A10.85,10.85,0,0,0,113.8,42c-3.7,0-7.44,0-11.11,0Zm14.15,0,.16,0Z"/><path class="a80813d1-5d96-46e5-bccb-2c80c42f1883" d="M60.76,40.24c-4.49-.91-9.08-1.65-13.63-2.21a20.92,20.92,0,0,0-3.84-.22c-.08,0-.31,0-.39-.17a.15.15,0,0,1,.05-.18.22.22,0,0,1,.23,0,.12.12,0,0,1,0,.15l-.18,0a.06.06,0,0,0,0,0l0,0h0a.25.25,0,0,0,.19,0,22.15,22.15,0,0,1,3.88.23c4.56.55,9.15,1.3,13.65,2.21Z"/><path class="a80813d1-5d96-46e5-bccb-2c80c42f1883" d="M60.83,40.35l-.09,0c-4.49-.91-9.07-1.65-13.62-2.21a22.73,22.73,0,0,0-3.83-.22c-.25,0-.41-.06-.48-.22a.27.27,0,0,1,.08-.3.3.3,0,0,1,.34,0,.24.24,0,0,1,.1.14h.05l-.05,0h0a23.58,23.58,0,0,1,3.83.23c4.56.56,9.15,1.31,13.66,2.22l.09,0Z"/><path class="a80813d1-5d96-46e5-bccb-2c80c42f1883" d="M42.47,44l0-.18A47.24,47.24,0,0,1,59.88,43l0,.18A47.09,47.09,0,0,0,42.47,44Z"/><path class="a80813d1-5d96-46e5-bccb-2c80c42f1883" d="M42.4,44.15l-.09-.36.1,0a47.4,47.4,0,0,1,17.48-.92l.1,0-.05.37h-.1a46.92,46.92,0,0,0-17.35.9Z"/><path class="a80813d1-5d96-46e5-bccb-2c80c42f1883" d="M42.92,53.55l-.12-.15a45.72,45.72,0,0,1,18-8.09l0,.18A45.21,45.21,0,0,0,42.92,53.55Z"/><path class="a80813d1-5d96-46e5-bccb-2c80c42f1883" d="M42.9,53.68l-.23-.29.08-.06a45.48,45.48,0,0,1,18-8.11l.09,0,.08.37h-.09A45.27,45.27,0,0,0,43,53.63Z"/><path class="a80813d1-5d96-46e5-bccb-2c80c42f1883" d="M77.32,50.09a4.17,4.17,0,0,1-2.12-.74l.1-.15a3.9,3.9,0,0,0,2.67.68,2.87,2.87,0,0,0,2.22-1.51,5.35,5.35,0,0,0,.39-1.92l.16-2.32h.19l-.17,2.32a5.35,5.35,0,0,1-.4,2,3.19,3.19,0,0,1-3,1.64Z"/><path class="a80813d1-5d96-46e5-bccb-2c80c42f1883" d="M77.31,50.19a4.51,4.51,0,0,1-2.17-.76l-.07,0,.2-.31.08,0a3.79,3.79,0,0,0,2.61.67,2.79,2.79,0,0,0,2.15-1.46,5.13,5.13,0,0,0,.37-1.89L80.66,44l.37,0-.17,2.42a5.38,5.38,0,0,1-.42,2A3.17,3.17,0,0,1,78,50.16,4.06,4.06,0,0,1,77.31,50.19Z"/><path class="a80813d1-5d96-46e5-bccb-2c80c42f1883" d="M82.86,50.45a2.45,2.45,0,0,1-2-1,3.34,3.34,0,0,1-.4-1.79,20.63,20.63,0,0,1,.12-2.72l.19,0a22.09,22.09,0,0,0-.13,2.7,3.22,3.22,0,0,0,.37,1.69,2.3,2.3,0,0,0,1.86.94,7.08,7.08,0,0,0,2.18-.37c.09,0,.19-.06.21-.13s0,0,0,0h0l-.18-.06a.16.16,0,0,1,.21-.1.22.22,0,0,1,.17.26c0,.18-.25.23-.34.26a7.06,7.06,0,0,1-2.24.37Z"/><path class="a80813d1-5d96-46e5-bccb-2c80c42f1883" d="M82.85,50.54a2.52,2.52,0,0,1-2-1.06,3.44,3.44,0,0,1-.42-1.83,22.75,22.75,0,0,1,.13-2.74v-.1l.37,0V45a20.11,20.11,0,0,0-.12,2.69,3.12,3.12,0,0,0,.35,1.64,2.24,2.24,0,0,0,1.79.89,6.93,6.93,0,0,0,2.15-.36l.09,0L85,49.73l0-.09a.25.25,0,0,1,.33-.17.31.31,0,0,1,.23.37c-.06.23-.31.3-.4.33a7.5,7.5,0,0,1-2.27.38Zm2.37-.72h0v0l0,0a0,0,0,0,0,0,0Zm0-.13.06,0v-.07A.08.08,0,0,0,85.19,49.69Z"/><circle class="bfa7c502-2aa4-44fc-a926-33ec85e65822" cx="93.23" cy="33.47" r="6.12"/><path class="a80813d1-5d96-46e5-bccb-2c80c42f1883" d="M86.51,34.26a8,8,0,0,1,2.1-1.68,7.77,7.77,0,0,1,2-.6,14.35,14.35,0,0,1,5-.16,8.63,8.63,0,0,1,4.33,1.87,9.2,9.2,0,0,1-3.28,2.91,8.7,8.7,0,0,1-5.69.38C89.07,36.52,88,35.26,86.51,34.26Z"/><path class="a80813d1-5d96-46e5-bccb-2c80c42f1883" d="M92.76,37.35a9,9,0,0,1-1.84-.28,8.21,8.21,0,0,1-3.28-1.85c-.38-.29-.77-.6-1.18-.88l-.09-.07.08-.08a8,8,0,0,1,2.11-1.69,7.73,7.73,0,0,1,2-.62,14.43,14.43,0,0,1,5-.15A8.79,8.79,0,0,1,100,33.62l.06.06-.05.07a9.6,9.6,0,0,1-3.32,2.94A8.05,8.05,0,0,1,92.76,37.35Zm-6.1-3.1c.38.26.74.55,1.09.82A8.15,8.15,0,0,0,91,36.89a8.63,8.63,0,0,0,5.63-.37,9.21,9.21,0,0,0,3.19-2.82,8.66,8.66,0,0,0-4.22-1.79,14.29,14.29,0,0,0-5,.16,7.35,7.35,0,0,0-1.93.6A7.27,7.27,0,0,0,86.66,34.25Z"/><path class="a80813d1-5d96-46e5-bccb-2c80c42f1883" d="M92.76,37.35a9.75,9.75,0,0,1-1.84-.28,8.27,8.27,0,0,1-3.28-1.85c-.38-.3-.77-.6-1.18-.88l-.09-.07.08-.07a7.84,7.84,0,0,1,2.11-1.7,7.38,7.38,0,0,1,2-.61,14.21,14.21,0,0,1,5-.16A8.8,8.8,0,0,1,100,33.62l.07.06-.05.07a9.6,9.6,0,0,1-3.32,2.94A8.05,8.05,0,0,1,92.76,37.35Zm-6.1-3.1c.38.26.74.55,1.09.83A8.26,8.26,0,0,0,91,36.89a8.63,8.63,0,0,0,5.63-.37,9.34,9.34,0,0,0,3.2-2.82,8.7,8.7,0,0,0-4.23-1.79,14.05,14.05,0,0,0-5,.16,7.35,7.35,0,0,0-1.93.6A7.27,7.27,0,0,0,86.66,34.25Z"/><path class="a80813d1-5d96-46e5-bccb-2c80c42f1883" d="M92.76,37.45a10,10,0,0,1-1.87-.29,8.46,8.46,0,0,1-3.31-1.86c-.37-.3-.76-.6-1.17-.89l-.19-.12.16-.16a6.59,6.59,0,0,1,4.14-2.34,14.67,14.67,0,0,1,5.09-.16A9,9,0,0,1,100,33.55l.13.12-.11.13a9.5,9.5,0,0,1-3.35,3A8.27,8.27,0,0,1,92.76,37.45Zm-6-3.22c.35.25.69.52,1,.77A8.15,8.15,0,0,0,91,36.8a8.59,8.59,0,0,0,5.57-.37,9,9,0,0,0,3.11-2.71A8.69,8.69,0,0,0,95.55,32a14.18,14.18,0,0,0-5,.16,7.51,7.51,0,0,0-1.9.59A7.28,7.28,0,0,0,86.8,34.23Z"/><circle class="a80813d1-5d96-46e5-bccb-2c80c42f1883" cx="93.33" cy="34.48" r="1.32"/><path class="a80813d1-5d96-46e5-bccb-2c80c42f1883" d="M93.25,35.9a1.42,1.42,0,1,1,1.5-1.33A1.42,1.42,0,0,1,93.25,35.9Zm.15-2.64a1.23,1.23,0,1,0,1.16,1.29A1.22,1.22,0,0,0,93.4,33.26Z"/><path class="a80813d1-5d96-46e5-bccb-2c80c42f1883" d="M93.25,35.89a1.41,1.41,0,1,1,1.49-1.33A1.4,1.4,0,0,1,93.25,35.89Zm.15-2.64a1.23,1.23,0,1,0,1.16,1.3A1.24,1.24,0,0,0,93.4,33.25Z"/><path class="a80813d1-5d96-46e5-bccb-2c80c42f1883" d="M93.24,36a1.51,1.51,0,1,1,1.6-1.42A1.51,1.51,0,0,1,93.24,36Zm.16-2.64a1.14,1.14,0,1,0,1.06,1.2A1.13,1.13,0,0,0,93.4,33.35Z"/><path class="eac1c129-c0c3-41bf-9d27-9070b5b9560e" d="M95.45,20a78.34,78.34,0,0,0-26.14-4.05"/><path class="eac1c129-c0c3-41bf-9d27-9070b5b9560e" d="M107.11,40c1.55-9.65,3.49-20.52-.84-29.29A22.66,22.66,0,0,0,95.45,20a78.34,78.34,0,0,0-26.14-4.05A17.19,17.19,0,0,0,60,6.52"/><path class="eac1c129-c0c3-41bf-9d27-9070b5b9560e" d="M60,6.52c-6.16,10-9.27,22.07-7.9,33.76"/><path class="eac1c129-c0c3-41bf-9d27-9070b5b9560e" d="M95.45,20a78.34,78.34,0,0,0-26.14-4.05"/><path class="eac1c129-c0c3-41bf-9d27-9070b5b9560e" d="M107.11,40c1.55-9.65,3.49-20.52-.84-29.29"/><path class="eac1c129-c0c3-41bf-9d27-9070b5b9560e" d="M106.27,10.71A22.66,22.66,0,0,0,95.45,20a78.34,78.34,0,0,0-26.14-4.05A17.19,17.19,0,0,0,60,6.52c-6.16,10-9.27,22.07-7.9,33.76a19,19,0,0,0,1.09,4.9c2,4.91,6.9,7.85,11.52,10.42a34.28,34.28,0,0,0,5.63,2.71,33.37,33.37,0,0,0,9.56,1.29,31.65,31.65,0,0,0,7.84-.41,32.82,32.82,0,0,0,7.88-3.27c3.12-1.63,6.35-3.36,8.39-6.22s2.59-6.31,3.14-9.7C108.66,30.35,110.6,19.48,106.27,10.71Z"/><path class="a80813d1-5d96-46e5-bccb-2c80c42f1883" d="M61.58,32.78a22.33,22.33,0,0,0,3.09-1.64,8.78,8.78,0,0,1,10.8,2.3,10.8,10.8,0,0,1-4,2.49,8.8,8.8,0,0,1-2.4.27,14.56,14.56,0,0,1-4-.44C63.46,35.29,62.78,34.08,61.58,32.78Z"/><path class="e1b3ddea-f1ae-4cb9-9dcd-8b2cdd7e43d0" d="M67.72,36.26a11.92,11.92,0,0,1-2.58-.41,5.72,5.72,0,0,1-2.94-2.22c-.22-.25-.44-.52-.69-.78l-.1-.11.14,0a10.63,10.63,0,0,0,2-1c.36-.22.74-.44,1.12-.64a8.86,8.86,0,0,1,10.91,2.32l.06.07-.07.06a11,11,0,0,1-4,2.51,8.8,8.8,0,0,1-2.43.27C68.61,36.29,68.15,36.28,67.72,36.26Zm-6-3.43c.21.23.4.46.59.68a5.66,5.66,0,0,0,2.85,2.16,13.83,13.83,0,0,0,3.92.43,8.44,8.44,0,0,0,2.38-.26,10.72,10.72,0,0,0,3.85-2.41,8.79,8.79,0,0,0-4.88-3,8.7,8.7,0,0,0-5.74.76c-.38.19-.75.41-1.11.63A10.6,10.6,0,0,1,61.75,32.83Z"/><path class="e1b3ddea-f1ae-4cb9-9dcd-8b2cdd7e43d0" d="M67.72,36.26a11.92,11.92,0,0,1-2.58-.41,5.72,5.72,0,0,1-2.94-2.22c-.22-.25-.44-.52-.69-.78l-.09-.11.13,0a9.53,9.53,0,0,0,2-1c.37-.22.74-.44,1.12-.64a8.86,8.86,0,0,1,10.91,2.32l.06.07-.07.06a11.08,11.08,0,0,1-4,2.51,8.8,8.8,0,0,1-2.43.27C68.61,36.29,68.15,36.28,67.72,36.26Zm-6-3.43c.22.23.41.46.6.68a5.66,5.66,0,0,0,2.85,2.16,14.17,14.17,0,0,0,3.92.44,8.83,8.83,0,0,0,2.38-.27,10.72,10.72,0,0,0,3.85-2.41,8.66,8.66,0,0,0-10.62-2.2c-.38.19-.75.41-1.11.63A11,11,0,0,1,61.74,32.83Z"/><path class="e1b3ddea-f1ae-4cb9-9dcd-8b2cdd7e43d0" d="M67.72,36.35a12.31,12.31,0,0,1-2.61-.41,5.83,5.83,0,0,1-3-2.25c-.22-.25-.44-.51-.69-.78l-.19-.21.27-.09a10.21,10.21,0,0,0,1.95-1c.36-.22.73-.45,1.12-.64a9,9,0,0,1,11,2.34l.11.14-.13.12a11.21,11.21,0,0,1-4,2.53,9,9,0,0,1-2.45.28C68.6,36.39,68.15,36.38,67.72,36.35Zm-5.81-3.49.5.59a5.57,5.57,0,0,0,2.8,2.13,13.68,13.68,0,0,0,3.9.43,8.56,8.56,0,0,0,2.35-.26,10.4,10.4,0,0,0,3.75-2.33,8.57,8.57,0,0,0-10.45-2.11c-.38.19-.75.41-1.1.63A11.21,11.21,0,0,1,61.91,32.86Z"/><circle class="e1b3ddea-f1ae-4cb9-9dcd-8b2cdd7e43d0" cx="69.29" cy="33.51" r="1.26"/><path class="e1b3ddea-f1ae-4cb9-9dcd-8b2cdd7e43d0" d="M69.21,34.87a1.36,1.36,0,1,1,1.43-1.28A1.37,1.37,0,0,1,69.21,34.87Zm.14-2.52a1.17,1.17,0,1,0,1.1,1.23A1.16,1.16,0,0,0,69.35,32.35Z"/><path class="e1b3ddea-f1ae-4cb9-9dcd-8b2cdd7e43d0" d="M69.21,34.86a1.35,1.35,0,0,1,.16-2.7,1.37,1.37,0,0,1,1.27,1.43A1.35,1.35,0,0,1,69.21,34.86Zm.14-2.51a1.17,1.17,0,1,0,1.1,1.23A1.16,1.16,0,0,0,69.35,32.35Z"/><path class="e1b3ddea-f1ae-4cb9-9dcd-8b2cdd7e43d0" d="M69.2,35a1.45,1.45,0,1,1,1.53-1.36A1.44,1.44,0,0,1,69.2,35Zm.15-2.52a1.08,1.08,0,1,0,1,1.14A1.09,1.09,0,0,0,69.35,32.44Z"/><path class="e1b3ddea-f1ae-4cb9-9dcd-8b2cdd7e43d0" d="M83.62,41.52a3.6,3.6,0,0,0,.16-2.1,39.85,39.85,0,0,0-5.43-.76.69.69,0,0,0-.65.19,1.11,1.11,0,0,0-.18.51,5.41,5.41,0,0,0,1.2,3.77c.66.93,1.75,2.8,2.79,2A11.34,11.34,0,0,0,83.62,41.52Z"/><path class="e1b3ddea-f1ae-4cb9-9dcd-8b2cdd7e43d0" d="M80.94,45.43h-.1c-.76-.13-1.46-1.16-2-1.92l-.22-.32a5.34,5.34,0,0,1-1.21-3.83,1.12,1.12,0,0,1,.2-.55.77.77,0,0,1,.73-.23,38.49,38.49,0,0,1,5.44.76h.06v.06a3.68,3.68,0,0,1-.16,2.15h0a11.47,11.47,0,0,1-2.14,3.68A1,1,0,0,1,80.94,45.43Zm-2.63-6.68a.61.61,0,0,0-.54.16,1,1,0,0,0-.15.47,5.17,5.17,0,0,0,1.17,3.69l.23.33c.49.72,1.17,1.72,1.85,1.83a.72.72,0,0,0,.59-.15,11.25,11.25,0,0,0,2.07-3.59h0a3.5,3.5,0,0,0,.18-2,40.65,40.65,0,0,0-5.36-.75Z"/><path class="e1b3ddea-f1ae-4cb9-9dcd-8b2cdd7e43d0" d="M78.31,38.57h0a39.63,39.63,0,0,1,5.43.76h0l0,0a3.68,3.68,0,0,1-.17,2.17h0a11.24,11.24,0,0,1-2.14,3.67c-1,.73-2-.75-2.65-1.72l-.22-.32a5.32,5.32,0,0,1-1.21-3.84,1.25,1.25,0,0,1,.19-.56A.73.73,0,0,1,78.31,38.57Zm5.42.93a37.64,37.64,0,0,0-5.38-.75.62.62,0,0,0-.6.17.84.84,0,0,0-.16.46,5.14,5.14,0,0,0,1.18,3.69l.22.32c.64.93,1.6,2.35,2.49,1.69a11.09,11.09,0,0,0,2.08-3.59A3.49,3.49,0,0,0,83.73,39.5Z"/><path class="e1b3ddea-f1ae-4cb9-9dcd-8b2cdd7e43d0" d="M80.94,45.52h-.11c-.78-.14-1.5-1.18-2-1.95l0,0-.2-.3a5.43,5.43,0,0,1-1.23-3.9,1.37,1.37,0,0,1,.22-.61.78.78,0,0,1,.73-.25h.06a38.49,38.49,0,0,1,5.44.76l.1,0,0,.1a3.87,3.87,0,0,1-.17,2.23,11.48,11.48,0,0,1-2.17,3.72A1,1,0,0,1,80.94,45.52ZM78.3,38.84c-.22,0-.38,0-.48.14a.81.81,0,0,0-.14.41A5.14,5.14,0,0,0,78.84,43l.23.33c.49.71,1.16,1.69,1.81,1.8a.64.64,0,0,0,.54-.14,11.09,11.09,0,0,0,2-3.55,3.44,3.44,0,0,0,.18-1.87,38.11,38.11,0,0,0-5.31-.74Z"/><path class="e1b3ddea-f1ae-4cb9-9dcd-8b2cdd7e43d0" d="M121.5,46.15a204.18,204.18,0,0,0-22.74-2.46V43.5A207.22,207.22,0,0,1,121.53,46Z"/><path class="e1b3ddea-f1ae-4cb9-9dcd-8b2cdd7e43d0" d="M121.57,46.26h-.09a206.16,206.16,0,0,0-22.73-2.47h-.09l0-.38h.09a204.73,204.73,0,0,1,22.77,2.47h.1Z"/><path class="e1b3ddea-f1ae-4cb9-9dcd-8b2cdd7e43d0" d="M119.18,51.8a110.34,110.34,0,0,0-21.25-6.44l0-.19a110.78,110.78,0,0,1,21.29,6.46Z"/><path class="e1b3ddea-f1ae-4cb9-9dcd-8b2cdd7e43d0" d="M119.23,51.93l-.09,0a109.94,109.94,0,0,0-21.23-6.44l-.09,0,.07-.37.09,0a110.08,110.08,0,0,1,21.31,6.47l.08,0Z"/><path class="e1b3ddea-f1ae-4cb9-9dcd-8b2cdd7e43d0" d="M102.69,42v-.18c3.69,0,7.43,0,11.12,0a12.38,12.38,0,0,1,2.94.24h0l.35.1,0,.18a11.48,11.48,0,0,0-3.24-.33C110.11,41.92,106.37,41.92,102.69,42Z"/><path class="e1b3ddea-f1ae-4cb9-9dcd-8b2cdd7e43d0" d="M102.59,42.05v-.38h.09c3.69,0,7.43,0,11.12,0a12.89,12.89,0,0,1,2.87.22h0l.09,0,.44.13-.11.36-.09,0A10.85,10.85,0,0,0,113.8,42c-3.7,0-7.44,0-11.11,0Zm14.15,0,.16,0Z"/><path class="e1b3ddea-f1ae-4cb9-9dcd-8b2cdd7e43d0" d="M60.76,40.24c-4.49-.91-9.08-1.65-13.63-2.21a20.92,20.92,0,0,0-3.84-.22c-.08,0-.31,0-.39-.17a.15.15,0,0,1,.05-.18.22.22,0,0,1,.23,0,.12.12,0,0,1,0,.15l-.18,0a.06.06,0,0,0,0,0l0,0h0a.25.25,0,0,0,.19,0,22.15,22.15,0,0,1,3.88.23c4.56.55,9.15,1.3,13.65,2.21Z"/><path class="e1b3ddea-f1ae-4cb9-9dcd-8b2cdd7e43d0" d="M60.83,40.35l-.09,0c-4.49-.91-9.07-1.65-13.62-2.21a22.73,22.73,0,0,0-3.83-.22c-.25,0-.41-.06-.48-.22a.27.27,0,0,1,.08-.3.3.3,0,0,1,.34,0,.24.24,0,0,1,.1.14h.05l-.05,0h0a23.58,23.58,0,0,1,3.83.23c4.56.56,9.15,1.31,13.66,2.22l.09,0Z"/><path class="e1b3ddea-f1ae-4cb9-9dcd-8b2cdd7e43d0" d="M42.47,44l0-.18A47.24,47.24,0,0,1,59.88,43l0,.18A47.09,47.09,0,0,0,42.47,44Z"/><path class="e1b3ddea-f1ae-4cb9-9dcd-8b2cdd7e43d0" d="M42.4,44.15l-.09-.36.1,0a47.4,47.4,0,0,1,17.48-.92l.1,0-.05.37h-.1a46.92,46.92,0,0,0-17.35.9Z"/><path class="e1b3ddea-f1ae-4cb9-9dcd-8b2cdd7e43d0" d="M42.92,53.55l-.12-.15a45.72,45.72,0,0,1,18-8.09l0,.18A45.21,45.21,0,0,0,42.92,53.55Z"/><path class="e1b3ddea-f1ae-4cb9-9dcd-8b2cdd7e43d0" d="M42.9,53.68l-.23-.29.08-.06a45.48,45.48,0,0,1,18-8.11l.09,0,.08.37h-.09A45.27,45.27,0,0,0,43,53.63Z"/><path class="e1b3ddea-f1ae-4cb9-9dcd-8b2cdd7e43d0" d="M77.32,50.09a4.17,4.17,0,0,1-2.12-.74l.1-.15a3.9,3.9,0,0,0,2.67.68,2.87,2.87,0,0,0,2.22-1.51,5.35,5.35,0,0,0,.39-1.92l.16-2.32h.19l-.17,2.32a5.35,5.35,0,0,1-.4,2,3.19,3.19,0,0,1-3,1.64Z"/><path class="e1b3ddea-f1ae-4cb9-9dcd-8b2cdd7e43d0" d="M77.31,50.19a4.51,4.51,0,0,1-2.17-.76l-.07,0,.2-.31.08,0a3.79,3.79,0,0,0,2.61.67,2.79,2.79,0,0,0,2.15-1.46,5.13,5.13,0,0,0,.37-1.89L80.66,44l.37,0-.17,2.42a5.38,5.38,0,0,1-.42,2A3.17,3.17,0,0,1,78,50.16,4.06,4.06,0,0,1,77.31,50.19Z"/><path class="e1b3ddea-f1ae-4cb9-9dcd-8b2cdd7e43d0" d="M82.86,50.45a2.45,2.45,0,0,1-2-1,3.34,3.34,0,0,1-.4-1.79,20.63,20.63,0,0,1,.12-2.72l.19,0a22.09,22.09,0,0,0-.13,2.7,3.22,3.22,0,0,0,.37,1.69,2.3,2.3,0,0,0,1.86.94,7.08,7.08,0,0,0,2.18-.37c.09,0,.19-.06.21-.13s0,0,0,0h0l-.18-.06a.16.16,0,0,1,.21-.1.22.22,0,0,1,.17.26c0,.18-.25.23-.34.26a7.06,7.06,0,0,1-2.24.37Z"/><path class="e1b3ddea-f1ae-4cb9-9dcd-8b2cdd7e43d0" d="M82.85,50.54a2.52,2.52,0,0,1-2-1.06,3.44,3.44,0,0,1-.42-1.83,22.75,22.75,0,0,1,.13-2.74v-.1l.37,0V45a20.11,20.11,0,0,0-.12,2.69,3.12,3.12,0,0,0,.35,1.64,2.24,2.24,0,0,0,1.79.89,6.93,6.93,0,0,0,2.15-.36l.09,0L85,49.73l0-.09a.25.25,0,0,1,.33-.17.31.31,0,0,1,.23.37c-.06.23-.31.3-.4.33a7.5,7.5,0,0,1-2.27.38Zm2.37-.72h0v0l0,0a0,0,0,0,0,0,0Zm0-.13.06,0v-.07A.08.08,0,0,0,85.19,49.69Z"/><circle class="a032bdf6-c2bd-40dc-b3df-695742fb7da6" cx="93.23" cy="33.47" r="6.12"/><path class="e4b782ae-6fae-4674-9c94-35396e41bea4" d="M86.51,34.26a8,8,0,0,1,2.1-1.68,7.77,7.77,0,0,1,2-.6,14.35,14.35,0,0,1,5-.16,8.63,8.63,0,0,1,4.33,1.87,9.2,9.2,0,0,1-3.28,2.91,8.7,8.7,0,0,1-5.69.38C89.07,36.52,88,35.26,86.51,34.26Z"/><path class="e4b782ae-6fae-4674-9c94-35396e41bea4" d="M92.76,37.35a9,9,0,0,1-1.84-.28,8.21,8.21,0,0,1-3.28-1.85c-.38-.29-.77-.6-1.18-.88l-.09-.07.08-.08a8,8,0,0,1,2.11-1.69,7.73,7.73,0,0,1,2-.62,14.43,14.43,0,0,1,5-.15A8.79,8.79,0,0,1,100,33.62l.06.06-.05.07a9.6,9.6,0,0,1-3.32,2.94A8.05,8.05,0,0,1,92.76,37.35Zm-6.1-3.1c.38.26.74.55,1.09.82A8.15,8.15,0,0,0,91,36.89a8.63,8.63,0,0,0,5.63-.37,9.21,9.21,0,0,0,3.19-2.82,8.66,8.66,0,0,0-4.22-1.79,14.29,14.29,0,0,0-5,.16,7.35,7.35,0,0,0-1.93.6A7.27,7.27,0,0,0,86.66,34.25Z"/><path class="e1b3ddea-f1ae-4cb9-9dcd-8b2cdd7e43d0" d="M92.76,37.35a9.75,9.75,0,0,1-1.84-.28,8.27,8.27,0,0,1-3.28-1.85c-.38-.3-.77-.6-1.18-.88l-.09-.07.08-.07a7.84,7.84,0,0,1,2.11-1.7,7.38,7.38,0,0,1,2-.61,14.21,14.21,0,0,1,5-.16A8.8,8.8,0,0,1,100,33.62l.07.06-.05.07a9.6,9.6,0,0,1-3.32,2.94A8.05,8.05,0,0,1,92.76,37.35Zm-6.1-3.1c.38.26.74.55,1.09.83A8.26,8.26,0,0,0,91,36.89a8.63,8.63,0,0,0,5.63-.37,9.34,9.34,0,0,0,3.2-2.82,8.7,8.7,0,0,0-4.23-1.79,14.05,14.05,0,0,0-5,.16,7.35,7.35,0,0,0-1.93.6A7.27,7.27,0,0,0,86.66,34.25Z"/><path class="e1b3ddea-f1ae-4cb9-9dcd-8b2cdd7e43d0" d="M92.76,37.45a10,10,0,0,1-1.87-.29,8.46,8.46,0,0,1-3.31-1.86c-.37-.3-.76-.6-1.17-.89l-.19-.12.16-.16a6.59,6.59,0,0,1,4.14-2.34,14.67,14.67,0,0,1,5.09-.16A9,9,0,0,1,100,33.55l.13.12-.11.13a9.5,9.5,0,0,1-3.35,3A8.27,8.27,0,0,1,92.76,37.45Zm-6-3.22c.35.25.69.52,1,.77A8.15,8.15,0,0,0,91,36.8a8.59,8.59,0,0,0,5.57-.37,9,9,0,0,0,3.11-2.71A8.69,8.69,0,0,0,95.55,32a14.18,14.18,0,0,0-5,.16,7.51,7.51,0,0,0-1.9.59A7.28,7.28,0,0,0,86.8,34.23Z"/><circle class="e1b3ddea-f1ae-4cb9-9dcd-8b2cdd7e43d0" cx="93.33" cy="34.48" r="1.32"/><path class="e1b3ddea-f1ae-4cb9-9dcd-8b2cdd7e43d0" d="M93.25,35.9a1.42,1.42,0,1,1,1.5-1.33A1.42,1.42,0,0,1,93.25,35.9Zm.15-2.64a1.23,1.23,0,1,0,1.16,1.29A1.22,1.22,0,0,0,93.4,33.26Z"/><path class="e1b3ddea-f1ae-4cb9-9dcd-8b2cdd7e43d0" d="M93.25,35.89a1.41,1.41,0,1,1,1.49-1.33A1.4,1.4,0,0,1,93.25,35.89Zm.15-2.64a1.23,1.23,0,1,0,1.16,1.3A1.24,1.24,0,0,0,93.4,33.25Z"/><path class="e1b3ddea-f1ae-4cb9-9dcd-8b2cdd7e43d0" d="M93.24,36a1.51,1.51,0,1,1,1.6-1.42A1.51,1.51,0,0,1,93.24,36Zm.16-2.64a1.14,1.14,0,1,0,1.06,1.2A1.13,1.13,0,0,0,93.4,33.35Z"/><path class="ec925295-e845-4f06-b999-53e635d16541" d="M95.45,20a78.34,78.34,0,0,0-26.14-4.05"/><path class="ec925295-e845-4f06-b999-53e635d16541" d="M107.11,40c1.55-9.65,3.49-20.52-.84-29.29A22.66,22.66,0,0,0,95.45,20a78.34,78.34,0,0,0-26.14-4.05A17.19,17.19,0,0,0,60,6.52"/><path class="ec925295-e845-4f06-b999-53e635d16541" d="M60,6.52c-6.16,10-9.27,22.07-7.9,33.76"/><path class="ec925295-e845-4f06-b999-53e635d16541" d="M95.45,20a78.34,78.34,0,0,0-26.14-4.05"/><path class="ec925295-e845-4f06-b999-53e635d16541" d="M107.11,40c1.55-9.65,3.49-20.52-.84-29.29"/><path class="ec925295-e845-4f06-b999-53e635d16541" d="M106.27,10.71A22.66,22.66,0,0,0,95.45,20a78.34,78.34,0,0,0-26.14-4.05A17.19,17.19,0,0,0,60,6.52c-6.16,10-9.27,22.07-7.9,33.76a19,19,0,0,0,1.09,4.9c2,4.91,6.9,7.85,11.52,10.42a34.28,34.28,0,0,0,5.63,2.71,33.37,33.37,0,0,0,9.56,1.29,31.65,31.65,0,0,0,7.84-.41,32.82,32.82,0,0,0,7.88-3.27c3.12-1.63,6.35-3.36,8.39-6.22s2.59-6.31,3.14-9.7C108.66,30.35,110.6,19.48,106.27,10.71Z"/></svg>