<svg id="a25021d1-2a9d-402f-801a-88815facb6ce" data-name="Layer 1" xmlns="http://www.w3.org/2000/svg" viewBox="0 0 150.72 105.09"><defs><style>.e7700cef-a757-4a03-bd5c-ddbce872d776{fill:#fff;}.e7700cef-a757-4a03-bd5c-ddbce872d776,.f4cde513-7dac-47ca-b960-0b2395af6969,.f592d6c7-9e86-4f5f-98b8-cce7a73167d3{stroke:#1d1d1b;stroke-linecap:round;stroke-miterlimit:10;}.b64e5eba-98af-4b65-9fb4-72767222c17b,.f4cde513-7dac-47ca-b960-0b2395af6969{fill:#1d1d1b;}.f84d91c8-3ed3-442f-a5a9-c6b84a9b7b40{fill:#5db4b3;}.f592d6c7-9e86-4f5f-98b8-cce7a73167d3{fill:none;}</style></defs><title>dog</title><path class="e7700cef-a757-4a03-bd5c-ddbce872d776" d="M38.41,44.47c-4.15,8.47-7.26,17.65-7.29,27.07s3.35,19.15,10.46,25.34c12.13,10.55,31.87,7.72,44.22-2.56,17.41-14.5,22.29-40.06,17.64-62.23-1.31-6.29-3.6-12.88-8.83-16.61C68.88-2.88,48.44,24,38.41,44.47Z"/><path class="e7700cef-a757-4a03-bd5c-ddbce872d776" d="M97.09,17.68c6.26-3.38,12.7-5.2,19-1.8a21.61,21.61,0,0,1,5,4.19l8.53,8.82c4.06,4.2,8.16,8.45,11.12,13.48s4.72,11,3.68,16.75a5.14,5.14,0,0,1-1.08,2.62,5.77,5.77,0,0,1-2.5,1.36c-4.87,1.65-10.75,2.79-14.73-.47-1.82-1.49-2.9-3.68-4-5.76-5-9.21-10.26-16.28-18.22-23.06"/><path class="e7700cef-a757-4a03-bd5c-ddbce872d776" d="M66.61,11.85C62.11,11.62,54.9,10,50.4,9.72A50.72,50.72,0,0,0,8,29.06a19.72,19.72,0,0,0-3.69,6.79c-1.22,4.6.3,9.43,1.82,13.94a10.07,10.07,0,0,0,1.36,3,6.6,6.6,0,0,0,6.75,2,13.54,13.54,0,0,0,6.25-3.91c5.6-5.58,8.87-13.14,14.33-18.85a31.31,31.31,0,0,1,18-9.58"/><path class="f4cde513-7dac-47ca-b960-0b2395af6969" d="M57.76,70.62c-5-1.71-10.45,1.06-13,5.64A9.55,9.55,0,0,0,43.64,81c0,6.74,5.2,13.31,11.87,14.26S69.26,90.69,69.29,84,63.68,71.75,57.76,70.62"/><circle class="f84d91c8-3ed3-442f-a5a9-c6b84a9b7b40" cx="56.47" cy="40.1" r="9.48"/><path class="f592d6c7-9e86-4f5f-98b8-cce7a73167d3" d="M48.52,41.81C50,37.46,54.46,34,59,34.56s8.28,5.67,6.63,10"/><path class="f592d6c7-9e86-4f5f-98b8-cce7a73167d3" d="M77.71,46.15A7.83,7.83,0,1,1,93,49.54"/><path class="f592d6c7-9e86-4f5f-98b8-cce7a73167d3" d="M48.21,41.91c3.81,4.61,12.4,5.81,17.46,2.62"/><path class="f592d6c7-9e86-4f5f-98b8-cce7a73167d3" d="M77.88,46c.18,2.79,2.78,4.94,5.51,5.54s5.57,0,8.29-.64c.42-.1,1.66-1.14,1.31-1.38"/><path class="b64e5eba-98af-4b65-9fb4-72767222c17b" d="M57.06,42.85c3.22,0,3.22-5,0-5s-3.22,5,0,5Z"/><path class="b64e5eba-98af-4b65-9fb4-72767222c17b" d="M84.23,48.53c3.22,0,3.23-5,0-5s-3.22,5,0,5Z"/><path class="f592d6c7-9e86-4f5f-98b8-cce7a73167d3" d="M38,89.42a31,31,0,0,0,24.73,10.76c5.4-.26,11.32-2.52,13.41-7.51"/></svg>