<svg id="ad2593a1-1782-4a9e-bbe7-4148ece39a86" data-name="Layer 1" xmlns="http://www.w3.org/2000/svg" viewBox="0 0 410.15 318.64"><defs><style>.a62bb897-fe79-450d-9fac-45f1cafb98c3,.fac0eed7-c8f5-447a-8a96-6a140f4a58a5{fill:#81cacd;}.acc47913-4adf-4526-a3cf-c048c6509090{fill:none;}.acc47913-4adf-4526-a3cf-c048c6509090,.fac0eed7-c8f5-447a-8a96-6a140f4a58a5{stroke:#1d1d1b;stroke-miterlimit:10;stroke-width:3px;}</style></defs><title>flea-03</title><path class="a62bb897-fe79-450d-9fac-45f1cafb98c3" d="M199.35,113.75l9.32-.77c3.9-.32,7.69-3.22,7.5-7.5-.17-3.79-3.31-7.84-7.5-7.5l-9.32.77c-3.9.32-7.69,3.22-7.5,7.5.17,3.79,3.31,7.84,7.5,7.5Z"/><path class="a62bb897-fe79-450d-9fac-45f1cafb98c3" d="M209.43,112a20.32,20.32,0,0,0,13.26-.7c4.21-1.59,8.24-4.52,12.77-5.07,5.14-.62,10.8.32,16,.59q9.2.48,18.39,1c20.37,1.16,41.68,2.25,60.67,10.48,8,3.48,18.26,8.6,21.59,17.26,3.87,10.05,7.08,19.34,5.33,30.24A84.26,84.26,0,0,1,354,181c-1.55,4.25-5.54,5-9.65,5.67-10.89,1.71-21.49,2.59-31.94,6.37-6.2,2.23-11.69,4-18.36,3.66-6.48-.33-13-1.25-19.42-1.94-12.83-1.37-25.66-2.54-37.86-7-9.07-3.35-13,11.14-4,14.46C245,206.7,258.06,208,271,209.36c12.73,1.35,26.28,4.32,38.8.45,5.79-1.78,11.28-4.17,17.21-5.51,6.23-1.41,12.54-2,18.86-2.84,11.75-1.6,20.06-6.91,23.23-18.8,3.13-11.72,5.79-24.8,2.48-36.76-1.46-5.28-3.62-10.76-5.6-15.88a34.51,34.51,0,0,0-10.79-14.32C337.06,101,312.92,96.44,290.31,94.3c-13.89-1.32-27.86-1.88-41.79-2.6-6.74-.35-13.87-1.33-20.39,1-4.26,1.49-10.08,6.31-14.71,4.91-9.26-2.8-13.22,11.68-4,14.47Z"/><path class="a62bb897-fe79-450d-9fac-45f1cafb98c3" d="M152.29,174.66c20,10.48,41.53,17.65,62.72,25.29,10.25,3.7,20,6.55,30.94,7.48,11.78,1,23.62,1.45,35.44,1.6,9.66.13,9.66-14.87,0-15-10.95-.14-21.9-.58-32.83-1.4-10.45-.78-19.75-3.6-29.56-7.14-20-7.2-40.28-13.9-59.14-23.78-8.55-4.47-16.14,8.47-7.57,12.95Z"/><path class="a62bb897-fe79-450d-9fac-45f1cafb98c3" d="M120.91,163.34c1-7.18,8.43-13,13.53-17.63a113.47,113.47,0,0,1,17.82-13.07,119.23,119.23,0,0,1,43.22-15.32c4-.61,6.24-5.65,5.24-9.22-1.2-4.28-5.19-5.86-9.22-5.24A129.69,129.69,0,0,0,142,121.37a132.49,132.49,0,0,0-20.48,15.91c-6.27,6-13.75,13.09-15,22.07-.57,4,1,8,5.24,9.23,3.51,1,8.65-1.24,9.23-5.24Z"/><path class="a62bb897-fe79-450d-9fac-45f1cafb98c3" d="M138.71,139.6c5.21-2.88,10.45-5.73,15.64-8.64,4.19-2.35,7.55-6.14,11.71-8.33,3.38-1.79,7.63-1.61,11.35-1.92A43,43,0,0,0,192,117.24c7.46-3.35,2.78-13.4-3.79-14a34.92,34.92,0,0,0-27.71,10.36c-6.82,6.85,3.78,17.46,10.61,10.61,4.72-4.74,10.5-6.55,17.1-6l-3.78-14c-3.78,1.7-8.3,1.42-12.33,1.82-4.71.47-9.44,1.21-13.64,3.57-3.95,2.22-7,5.67-11,7.92-5.42,3.06-10.91,6-16.37,9-8.46,4.67-.9,17.63,7.57,13Z"/><path class="a62bb897-fe79-450d-9fac-45f1cafb98c3" d="M112,173.05l22.81.85c6.19.23,14.67-.91,20.34,2,8.55,4.45,16.15-8.49,7.57-13-7.52-3.91-15.84-3.63-24.1-3.94l-26.62-1c-9.65-.36-9.63,14.64,0,15Z"/><path class="a62bb897-fe79-450d-9fac-45f1cafb98c3" d="M131.88,161.59c13.66-10.15,27.87-19.86,42.83-28a104,104,0,0,1,23.21-8.87c7.9-2.14,15.43-5.14,23.07-8a114.28,114.28,0,0,1,47.06-7.76c16.21.79,32.17,4.69,47.44,10.09,11.3,4,24.93,9.4,30.6,20.83,3.35,6.77,2.76,15.06,1.57,22.3-1.09,6.69-2.72,13.57-8.82,17.39s-13.57,5-20.38,6.22a153.22,153.22,0,0,1-24.93,2.33,208.49,208.49,0,0,1-50-5.59c-18.25-4.18-36-10.22-53.45-17s-34.84-16.23-54-16.81l3.78,14c12-7,22.2-16.57,33.86-24.11,12.56-8.12,26.68-11.55,41.24-14.16,29.77-5.33,60-5.19,89.24,2.79a196.76,196.76,0,0,1,20.45,6.8c6.18,2.45,14.33,5,19.41,9.46,4.17,3.63.12,11.87-1.59,16.12A47.43,47.43,0,0,1,332.69,175c-9.3,9.53-22.15,10.53-34.66,8.27-15-2.7-29.59-7.4-44.54-10.36-17.17-3.4-34.46-5.08-51.76-7.48-13.39-1.87-31.56-5.76-38.78-18.76l1,3.78-.07-1.26-2.2,5.3c1.4-1.79,6.59-2.6,8.74-3.3,2.85-.92,5.72-1.79,8.56-2.75a148.86,148.86,0,0,0,18.24-7.58c11-5.43,21.58-12.11,33.18-16.27,12.63-4.53,25-4.42,38.06-1.94a332.54,332.54,0,0,1,39.2,9.75A188.9,188.9,0,0,1,325.53,139q4.61,2,9.07,4.28c1.36.7,5.58,2.28,6.18,3.93,1.26,3.49-6.18,10-8.38,11.87a47.24,47.24,0,0,1-14,8.23c-12.51,4.79-26.12,5.15-39.35,4.8a288.34,288.34,0,0,1-40.53-3.84,270.33,270.33,0,0,1-40.51-10q-4.84-1.61-9.62-3.42c-.4-.15-5.89-3.14-6-3.12l0,3.16c1-.53,1.93-1.05,2.91-1.55s2.13-1.12,3.19-1.68c3.76-1.95,7.52-3.88,11.32-5.74,11.8-5.77,24-10.83,37-13.4,13.31-2.65,26.52-1.37,39.65,1.66A285.2,285.2,0,0,1,315.35,146q4.25,1.63,8.4,3.51c.54.24,7.42,4.37,7.47,4.36l.06-1.21c.37-1.43.11-1.59-.77-.48-1.15.17-3.24,2.07-4.31,2.66a55.66,55.66,0,0,1-9,4c-24.29,8.52-53.05,8.31-78.24,4.61a205.86,205.86,0,0,1-23.55-4.88,72.69,72.69,0,0,1-10.09-3,6.46,6.46,0,0,1-2.23-1.18c.84.89-.42,1.31.94.65,2.58-1.26,4.93-3.1,7.65-4.25a75.53,75.53,0,0,1,10.38-3.43,114.6,114.6,0,0,1,21.08-3.28c26.82-1.87,56.83-1.3,79.9,14.2l-1.52-11.78c-6.73,5.71-17.17,5.14-25.43,6-11.94,1.24-23.63,4.13-35.56,5.42a126.25,126.25,0,0,1-65.09-10.17l-1.79,13.71A387.9,387.9,0,0,1,247,154.3q13.45-.84,26.95-.77c8.38.05,16.84-.16,24.81,2.76V141.83a155.89,155.89,0,0,1-70,6.94l-2,14.74c29.06-2.89,59.48,3.88,87.36-7.32,7.09-2.85,7.07-11.6,0-14.46a44.23,44.23,0,0,0-19.77-3.1c-5.37.37-9.74,6.18-6.47,11.29a22.21,22.21,0,0,0,13.68,10c9.37,2.31,13.37-12.15,4-14.46a6.92,6.92,0,0,1-4.72-3.15l-6.48,11.28a34.25,34.25,0,0,1,15.78,2.56V141.73c-26.54,10.66-55.66,4-83.37,6.78-3.71.37-6.9,2.57-7.37,6.5-.39,3.29,1.64,7.72,5.38,8.23a172.42,172.42,0,0,0,77.95-7c7.26-2.42,6.94-11.92,0-14.46-8.57-3.14-17.85-3.19-26.87-3.29q-14.44-.14-28.88.76a417.55,417.55,0,0,0-57.33,7.7c-6,1.22-7.65,11.07-1.79,13.71,23.37,10.5,49.06,15,74.6,12,12.84-1.54,25.45-4.54,38.36-5.63,11.41-1,22.27-2.31,31.3-10,3.91-3.32,2.17-9.3-1.52-11.78-19.66-13.2-43.73-16.53-66.93-16.77a206.48,206.48,0,0,0-36.34,2.38c-11,1.84-24.22,5.12-32.87,12.59-9.19,7.92-7,20.39,3.85,25.3,11.22,5.08,24.54,7.28,36.65,9.09,24.64,3.67,50.32,3.82,74.77-1.44,10.83-2.34,24.16-6.35,32.19-14.45a13,13,0,0,0,2.47-15.17c-2.73-5.21-8-8-13.1-10.34a255.21,255.21,0,0,0-36.47-13.1c-12.58-3.53-25.49-6.76-38.6-7.36-25.67-1.18-49.76,9.48-72.08,21-4.83,2.48-11.14,4.73-14.31,9.42-3.34,4.95-2.36,11,1.5,15.36,3.69,4.13,8.83,5.92,13.87,7.81q9.14,3.42,18.5,6.14a299.64,299.64,0,0,0,77.15,11.42c23.46.49,50.15-3,66.49-21.82,7.55-8.72,12.89-21.16,2.54-30.1-4.13-3.56-9.39-5.83-14.31-8.07-6.12-2.78-12.38-5.28-18.73-7.48a310,310,0,0,0-36.17-9.79c-12.46-2.68-25.29-5.19-38.07-3.6-23.73,3-42.31,18.55-64.22,26.53-5.63,2-11.42,3.64-17.06,5.65-5.87,2.08-12.87,4.5-12.38,12,.36,5.28,5.26,10,9,13.35a57.17,57.17,0,0,0,14.68,9.34c11.43,5.09,23.73,6.74,36.06,8.13,13,1.47,26,3.24,38.9,5.74,12.45,2.41,24.66,5.65,37,8.67,11.84,2.91,24.17,5,36.27,2.47,21.45-4.52,36.06-25.93,39.47-46.64,2.32-14-7-20.92-18.43-26.32A202.14,202.14,0,0,0,230,107.05c-24.94,2.93-49.37,7.73-70.05,22.74-9.21,6.69-17.85,14.12-27.71,19.87-6.56,3.82-3.55,13.76,3.79,14,18.06.54,35.26,10.55,51.79,17a372.87,372.87,0,0,0,52.61,16.56,224.06,224.06,0,0,0,55,5.88,176.29,176.29,0,0,0,28-3c7.84-1.48,16.16-3.33,23-7.57,14.57-9,18.48-29.26,16.87-45.23-1.63-16.14-12-27.78-25.95-35.15-14.62-7.74-31.38-12.64-47.59-15.6-17.83-3.25-36.11-3.85-53.92-.07-9.7,2.06-18.76,5.85-28,9.33-9.54,3.6-19.64,5.46-29.06,9.34-19.54,8-37.57,21-54.45,33.56-3.27,2.44-4.85,6.47-2.69,10.26,1.84,3.23,7,5.11,10.26,2.69Z"/><path class="a62bb897-fe79-450d-9fac-45f1cafb98c3" d="M220.21,101.9c2.18-1.06,4.13-2.21,6.58-2.42a39,39,0,0,0,6.34-1.06c3.74-1,2.15-6.75-1.59-5.79-2.5.64-5,.62-7.52,1.12s-4.65,1.9-6.84,3c-3.47,1.7-.43,6.88,3,5.18Z"/><path class="a62bb897-fe79-450d-9fac-45f1cafb98c3" d="M310.8,53.19c2.65,1.1,3.14,3.75,3.21,6.29L319.6,58l-3.71-5a17.28,17.28,0,0,1-1.74-2.36,16.77,16.77,0,0,1-.7-2.32c-1.18-3.66-7-2.1-5.79,1.59a16.86,16.86,0,0,0,2.58,5.49L314.42,61c1.64,2.21,5.67,1.72,5.59-1.52-.14-5.55-2.33-9.88-7.62-12.07-1.5-.63-3.28.67-3.69,2.09a3.08,3.08,0,0,0,2.1,3.69Z"/><path class="a62bb897-fe79-450d-9fac-45f1cafb98c3" d="M309.76,50.39a4.1,4.1,0,0,1,1.9.76s.48.35.3.2.23.21.27.25l.42.42c.05.07.43.57.18.21a3.08,3.08,0,0,0,4.1,1.08A3,3,0,0,0,318,49.2a11.32,11.32,0,0,0-6.65-4.6,3,3,0,0,0-1.6,5.79Z"/><path class="a62bb897-fe79-450d-9fac-45f1cafb98c3" d="M305.65,45.45c-6.12,3.64-13.37,3.49-19.67,6.78a99.19,99.19,0,0,0-17.19,11.33c-5.4,4.49-9.6,9.92-15.36,14-5.09,3.65-9.94,7.17-13.7,12.26-2.29,3.11,2.92,6.1,5.19,3,4-5.47,10-8.8,15.29-12.89,4.71-3.65,8.25-8.42,12.82-12.2a81.07,81.07,0,0,1,17.5-11.16c6-2.68,12.4-2.59,18.15-6,3.31-2,.3-7.16-3-5.18Z"/><path class="a62bb897-fe79-450d-9fac-45f1cafb98c3" d="M297.73,51c-9.16,6-18.38,12.09-27.17,18.65-3.5,2.61-5.3,5.59-7.62,9.25a46.32,46.32,0,0,1-10.29,11.21c-3,2.41,1.25,6.63,4.24,4.24a50.59,50.59,0,0,0,8.44-8.49c3.3-4.26,5.2-8.79,9.67-12,8.4-6.13,17.07-11.92,25.75-17.64,3.21-2.12.21-7.32-3-5.18Z"/><path class="a62bb897-fe79-450d-9fac-45f1cafb98c3" d="M255.88,89.22a52.32,52.32,0,0,0-5.84-2l1.33,5a120,120,0,0,1,11-9.46c2.7-2.1,6.67-4.47,3.83-8.14-2.36-3.05-6.57,1.23-4.24,4.25l.2.25-.77-2.92c.26-.94.26-.41-.52.16s-1.52,1.21-2.28,1.8c-1.38,1.08-2.76,2.13-4.12,3.22A90.6,90.6,0,0,0,247.13,88a3,3,0,0,0,1.32,5,52.1,52.1,0,0,1,5.83,2c3.57,1.48,5.12-4.32,1.6-5.78Z"/><path class="a62bb897-fe79-450d-9fac-45f1cafb98c3" d="M369.94,59.11c-1.16,4.52.79,8.33,4.29,11.2,2.33,1.92,5.11,3.18,7.37,5.2a36.72,36.72,0,0,1,6.54,8.14,69.55,69.55,0,0,1,4.33,7.72c1.87,4.07.39,7-2.69,10.07-5.14,5.07-13.21,7.86-19.57,11.11-3.44,1.75-.41,6.93,3,5.18,8.81-4.5,29.34-11.77,26.08-25.34C398,86.7,393.66,80.58,390.13,76A34.38,34.38,0,0,0,384,69.76c-2.82-2.17-9.44-4.58-8.3-9.05,1-3.74-4.82-5.34-5.78-1.6Z"/><path class="a62bb897-fe79-450d-9fac-45f1cafb98c3" d="M370.09,120.34c11.54-6.67,14.13-20.13,22.56-29.54l-5-1.33c.56,3.13-2.91,5.65-4.34,8.18a10,10,0,0,0-1.38,6.07,3,3,0,0,0,5.12,2.12A32.34,32.34,0,0,0,395,95.22c1.62-3.48-3.55-6.53-5.18-3a28.17,28.17,0,0,1-7,9.41l5.12,2.12c-.34-3.61,3-5.86,4.59-8.81a9.88,9.88,0,0,0,.92-7c-.39-2.2-3.59-2.92-5-1.32-7.89,8.81-10.7,22.44-21.34,28.6-3.35,1.93-.33,7.12,3,5.18Z"/><path class="a62bb897-fe79-450d-9fac-45f1cafb98c3" d="M374.63,75.2c4.28.91,4.58,11,5.86,14.53,1.08,3,3.31,6.16,6.89,5.84A3,3,0,0,0,390,94.08c2.46-5.37-1.47-11.71-3.89-16.43-1.32-2.57-2.73-5.2-5-7.06s-5.42-2.32-8.25-3.29c-3.66-1.26-5.23,4.53-1.6,5.78,2.2.76,4.73,1,6.53,2.57a14.62,14.62,0,0,1,2.76,4.28c1.17,2.23,5.45,8.56,4.28,11.13l2.59-1.49c-1.82.16-3.79-12-4.29-13.64a8.92,8.92,0,0,0-6.87-6.52c-3.76-.8-5.37,5-1.59,5.79Z"/><path class="a62bb897-fe79-450d-9fac-45f1cafb98c3" d="M369.6,56.59c-9.89,9-24,9.26-34.79,16.94-5.2,3.69-10.58,6.88-16.1,10.08-3.37,2-6.7,4.11-10.36,5.47-2.47.92-4.84,1.49-7.08,2.93-3.24,2.07-.24,7.27,3,5.18,2.45-1.57,5.34-2.1,8-3.26a95.63,95.63,0,0,0,9.44-5.14c6-3.47,11.68-7.11,17.4-11,5.87-4,12.28-5.57,18.91-7.75a42.76,42.76,0,0,0,15.8-9.22c2.86-2.61-1.4-6.84-4.24-4.24Z"/><path class="a62bb897-fe79-450d-9fac-45f1cafb98c3" d="M372.94,67.31c-11.95-2.79-21.59,2.83-31.38,9.08-4.66,3-9.16,6.2-13.51,9.61-2.61,2-5.12,4.22-7.7,6.31-2.41,1.93-6.93,6.43-10.4,5.76l2.1,3.69a9.75,9.75,0,0,0-1.18-7.7l-1.07,4.1,25.26-13.28-3-5.19L310.59,95c-3.11,2.23-.12,7.43,3,5.18l21.44-15.33c3.11-2.22.45-7-3-5.19L306.77,93a3.05,3.05,0,0,0-1.08,4.11l.57,3.08a3,3,0,0,0,2.1,3.69c5,1,8.81-1.61,12.74-4.57,5-3.78,9.71-8,14.79-11.76,9.87-7.25,22.53-17.45,35.46-14.43,3.75.87,5.36-4.91,1.59-5.79Z"/><path class="a62bb897-fe79-450d-9fac-45f1cafb98c3" d="M369.59,63.18l-3.25.57a3,3,0,0,0-2.1,3.69,3.08,3.08,0,0,0,3.69,2.09l3.25-.56a3,3,0,0,0,2.1-3.69,3.09,3.09,0,0,0-3.69-2.1Z"/><path class="a62bb897-fe79-450d-9fac-45f1cafb98c3" d="M341,74.59A30.33,30.33,0,0,1,335.4,78a3,3,0,0,0-1.08,4.1,3.06,3.06,0,0,0,4.1,1.08,36.34,36.34,0,0,0,6.79-4.36c1.27-1,1.06-3.19,0-4.25a3.08,3.08,0,0,0-4.24,0Z"/><path class="a62bb897-fe79-450d-9fac-45f1cafb98c3" d="M315.7,187.8a89.39,89.39,0,0,0,18.46-6c3.53-1.56.48-6.73-3-5.18a83.48,83.48,0,0,1-17,5.36c-3.78.77-2.18,6.55,1.6,5.78Z"/><path class="a62bb897-fe79-450d-9fac-45f1cafb98c3" d="M115,143.1c-4.94,3.45-11.06,11.34-10.24,17.76.85,6.64,10,8.62,15.3,9.42,4.13.61,8.32.69,12.44,1.36,3.89.62,7.13,2.14,10.7,3.75,4.15,1.88,8.15,1.26,12.53,2,4.72.75,9.12,2.89,13.4,4.92,2.5,1.19,5.87-1.38,4.1-4.11l-.67-1c-2.09-3.23-7.29-.23-5.18,3l.67,1,4.1-4.1c-5.39-2.56-10.87-5.13-16.87-5.81-3.71-.43-6.91,0-10.39-1.71a41.65,41.65,0,0,0-7.76-3.11c-5.57-1.4-11.37-1.21-17-2.19-4.32-.76-10-1.41-8.39-7.52.78-3,3.86-6.76,6.29-8.46,3.15-2.2.15-7.4-3-5.18Z"/><path class="a62bb897-fe79-450d-9fac-45f1cafb98c3" d="M157.09,178.44a52.48,52.48,0,0,0,10.64,3c3.77.64,5.4-5.14,1.59-5.79a52.48,52.48,0,0,1-10.64-3c-1.51-.6-3.28.67-3.69,2.1a3.07,3.07,0,0,0,2.1,3.69Z"/><path class="a62bb897-fe79-450d-9fac-45f1cafb98c3" d="M343.36,197.22c-6.18,1.32-12.47,3.15-18.76,3.82-5.17.54-10.22,0-15.18,1.89-2.91,1.1-2.75,4.63,0,5.79a11.6,11.6,0,0,0,7.17.59c3.79-.72,2.19-6.51-1.59-5.79a5.34,5.34,0,0,1-4-.59v5.79c5.15-1.95,10.67-1.18,16-2,6-.91,11.95-2.45,17.89-3.71,3.77-.81,2.18-6.6-1.59-5.79Z"/><path class="a62bb897-fe79-450d-9fac-45f1cafb98c3" d="M236.1,210.47a95.8,95.8,0,0,0,11.21,8.44c3.26,2.09,6.27-3.1,3-5.18a84.94,84.94,0,0,1-10-7.5c-2.9-2.53-7.16,1.7-4.24,4.24Z"/><path class="a62bb897-fe79-450d-9fac-45f1cafb98c3" d="M243.2,217.15c11.74,9.54,23.54,18.42,36.1,26.84,5.6,3.76,10.47,8.21,16.46,11.41a116.83,116.83,0,0,0,19.67,8c3.69,1.18,5.27-4.61,1.6-5.78a106.64,106.64,0,0,1-19-7.76c-5.67-3.11-10.36-7.43-15.72-11-12.14-8.09-23.54-16.69-34.88-25.9-3-2.41-7.24,1.81-4.24,4.24Z"/><path class="a62bb897-fe79-450d-9fac-45f1cafb98c3" d="M245.42,212.15c1.39,2,3.33,4.09,4.22,6.36s1.53,3.92,3.54,5.56c3,2.41,7.24-1.81,4.25-4.24a4.91,4.91,0,0,1-1.73-2,28.41,28.41,0,0,0-1.14-2.89,66.41,66.41,0,0,0-3.95-5.79c-2.2-3.14-7.4-.15-5.19,3Z"/><path class="a62bb897-fe79-450d-9fac-45f1cafb98c3" d="M271.69,236.58C281,242,289.53,248.81,299,254.1c8.49,4.76,19.69,6.48,26.51,13.68,2.66,2.81,6.9-1.44,4.24-4.24-7-7.41-17.52-9.13-26.23-13.8-10-5.38-18.93-12.62-28.77-18.34-3.34-1.94-6.37,3.24-3,5.18Z"/><path class="a62bb897-fe79-450d-9fac-45f1cafb98c3" d="M309.6,263.06c9.48,2.66,16.39,10.43,25.76,13.45a91.37,91.37,0,0,0,16.39,3.38c4,.51,8.3,1.29,11.52-1.55a3,3,0,0,0-1.32-5,251.12,251.12,0,0,1-49.08-16.47c-3.48-1.6-6.54,3.57-3,5.18a258.36,258.36,0,0,0,50.51,17.08l-1.33-5c-1.22,1.08-6.22,0-7.49-.23-2.41-.34-4.79-.84-7.17-1.34-4.53-.95-8.82-2-12.89-4.25-6.8-3.79-12.66-8.85-20.28-11-3.73-1-5.32,4.74-1.6,5.79Z"/><path class="a62bb897-fe79-450d-9fac-45f1cafb98c3" d="M141.28,184.73a16.9,16.9,0,0,0,4.94-.65c1.57-.4,5.65-1.44,4.57,1.75l1.38-1.79c.92-.14.56-.18-1.07-.11q-1.48-.08-3-.24c-1.72-.2-3.42-.51-5.12-.8-3.23-.54-6.44-1-9.71-1.28-3.85-.27-3.83,5.73,0,6,5.49.38,10.83,1.78,16.31,2.22,3.23.26,6.55.3,7.26-3.51.61-3.21-.44-7-3.56-8.38-4.09-1.85-7.93.92-12,.79-3.86-.12-3.86,5.88,0,6Z"/><path class="a62bb897-fe79-450d-9fac-45f1cafb98c3" d="M136.12,187.36c5-1.72,9.58.16,14.59-.68,3.8-.64,2.19-6.43-1.6-5.79-2.52.43-5.06-.48-7.59-.51a20.61,20.61,0,0,0-7,1.2c-3.62,1.26-2.07,7.06,1.6,5.78Z"/><path class="a62bb897-fe79-450d-9fac-45f1cafb98c3" d="M162.75,184.94a43.34,43.34,0,0,1,6.83,16.27c.57,2.87,5.21,2.86,5.78,0A127.19,127.19,0,0,0,177.42,187c.34-3.84-5.66-3.82-6,0a114.9,114.9,0,0,1-1.84,12.66h5.78a47.66,47.66,0,0,0-7.43-17.7c-2.17-3.17-7.37-.17-5.18,3Z"/><path class="a62bb897-fe79-450d-9fac-45f1cafb98c3" d="M171.07,188.32c3.86,0,3.87-6,0-6s-3.86,6,0,6Z"/><path class="a62bb897-fe79-450d-9fac-45f1cafb98c3" d="M170.4,154.15c-.07.16-.24.49-.06.15.07-.12.12-.25.19-.37.15-.27.33-.52.49-.78s-.36.4-.09.12c.1-.1.18-.21.27-.31s.44-.44.67-.65a3,3,0,0,0,0-4.24,3.07,3.07,0,0,0-4.24,0,11.7,11.7,0,0,0-3,4.48,3,3,0,0,0,4.41,3.39,3.57,3.57,0,0,0,1.38-1.79Z"/><path class="a62bb897-fe79-450d-9fac-45f1cafb98c3" d="M170.69,203.4a327.57,327.57,0,0,1-.12,33.46c-.88,12.79-3.69,25.71-5.58,38.39-.46,3.06,3.82,5.64,5.48,2.32l.72-1.45c1.72-3.44-3.46-6.49-5.18-3l-.72,1.45,5.48,2.31c1.89-12.65,4.27-25.33,5.62-38.05,1.23-11.57.7-23.79.3-35.4-.13-3.85-6.13-3.87-6,0Z"/><path class="a62bb897-fe79-450d-9fac-45f1cafb98c3" d="M170.79,198.15c1,9.13,4.45,17.6,5.2,26.7.77,9.39-4.43,17.53-6.06,26.55-.67,3.78,5.11,5.4,5.79,1.6,1.59-8.87,6.61-17,6.39-26.18-.23-9.86-4.3-18.91-5.32-28.67-.4-3.8-6.41-3.84-6,0Z"/><path class="a62bb897-fe79-450d-9fac-45f1cafb98c3" d="M169.81,251.56l-.55,1.8a3,3,0,0,0,2.1,3.69,3.06,3.06,0,0,0,3.69-2.09l.54-1.81a3,3,0,1,0-5.78-1.59Z"/><path class="a62bb897-fe79-450d-9fac-45f1cafb98c3" d="M163.29,270.9c-3.89,10.57-4.48,22.38-5.25,33.53-.16,2.34,2.65,3.66,4.51,2.59,4.3-2.45,4.59-7.82,5.36-12.27a158.17,158.17,0,0,0,2-18c.21-3.86-5.79-3.84-6,0-.26,4.6-.66,9.17-1.36,13.72-.43,2.8-.46,9.92-3,11.39l4.52,2.59c.73-10.68,1.31-21.82,5-31.94,1.34-3.63-4.46-5.19-5.79-1.59Z"/><path class="a62bb897-fe79-450d-9fac-45f1cafb98c3" d="M11.63,210.77c8.9-1.79,18.17-.85,27.18-.6,3.86.1,3.86-5.9,0-6-9.62-.26-19.28-1.09-28.77.81-3.79.76-2.19,6.54,1.59,5.79Z"/><path class="a62bb897-fe79-450d-9fac-45f1cafb98c3" d="M41.7,209.65a64.28,64.28,0,0,0,30.24-7.77,26.78,26.78,0,0,1,15.92-3.62,116.85,116.85,0,0,0,18.33-.18c3.81-.37,3.85-6.38,0-6a108.9,108.9,0,0,1-17.51.24c-5-.31-9.86-.36-14.54,1.64C69.29,196,65,199,60,200.66a58.12,58.12,0,0,1-18.26,3c-3.86,0-3.87,6,0,6Z"/><path class="a62bb897-fe79-450d-9fac-45f1cafb98c3" d="M103.56,195.58c4.65-1.16,9.28-2.34,13.81-3.92s8.59-3.42,13.41-3.24c3.86.14,3.86-5.86,0-6-4.78-.18-9,1.28-13.46,2.89A157.64,157.64,0,0,1,102,189.8c-3.75.93-2.16,6.72,1.59,5.78Z"/><path class="a62bb897-fe79-450d-9fac-45f1cafb98c3" d="M134.39,189c3.86,0,3.87-6,0-6s-3.87,6,0,6Z"/><path class="a62bb897-fe79-450d-9fac-45f1cafb98c3" d="M119.82,187c-1.72,1.6-6.27.81-8.39,1.08a24.67,24.67,0,0,0-6.37,1.69,70.86,70.86,0,0,0-6.71,3.74c-2.73,1.49-5.69,1.8-8.67,2.43-5.59,1.19-10.24,4.32-16.09,4.35-5.17,0-9.86-.31-14.51,2.27-3.07,1.69-.93,6.19,2.31,5.48,3.76-.82,7.09.05,10.81-1.37,3.28-1.25,6.44-3,9.62-4.45,3.5-1.64.45-6.82-3-5.18-3.15,1.48-6.47,3.55-9.83,4.46-3,.81-6.13.09-9.17.75l2.32,5.49c5.15-2.85,11.47-.79,17.06-1.93,2.68-.54,5.06-1.82,7.59-2.78,3.09-1.17,6.3-1.44,9.47-2.28,5.2-1.38,9.07-5.33,14.35-6.47,4.82-1.05,9.56.62,13.48-3,2.84-2.63-1.41-6.87-4.24-4.24Z"/><path class="a62bb897-fe79-450d-9fac-45f1cafb98c3" d="M13.75,212c3.2.95,6.52.61,9.82.51,3.7-.1,7.4-.21,11.08-.59s3.85-6.39,0-6c-3.22.33-6.45.46-9.69.55s-6.58.64-9.62-.26c-3.71-1.09-5.29,4.7-1.59,5.79Z"/><path class="a62bb897-fe79-450d-9fac-45f1cafb98c3" d="M191.65,195.79c.93,18.08,9.14,33.73,13.94,50.85,1,3.72,6.83,2.14,5.79-1.59-4.64-16.55-12.83-31.78-13.73-49.26-.19-3.84-6.19-3.86-6,0Z"/><path class="a62bb897-fe79-450d-9fac-45f1cafb98c3" d="M199.37,198.3a139.81,139.81,0,0,0,4,21.3c2,6.83,1.9,13.56,4.5,20.3,1.37,3.57,7.18,2,5.79-1.59a38.2,38.2,0,0,1-2.8-10.1,49.3,49.3,0,0,0-1.16-8.37,165.62,165.62,0,0,1-4.34-21.54c-.49-3.77-6.49-3.82-6,0Z"/><path class="a62bb897-fe79-450d-9fac-45f1cafb98c3" d="M195.81,195.47c-.6,7.71,1.16,15.09,3.13,22.5q1.38,5.24,2.8,10.49c.75,2.81,1.12,6.38,2.94,8.71a3,3,0,0,0,2.92.77l.3-.07c3.76-.87,2.17-6.66-1.59-5.78l-.3.07,2.91.77c-.37-.48-.79-3.78-.93-4.32l-.94-3.5c-.85-3.21-1.72-6.42-2.56-9.63-1.75-6.61-3.21-13.13-2.68-20,.3-3.85-5.7-3.83-6,0Z"/><path class="a62bb897-fe79-450d-9fac-45f1cafb98c3" d="M207.27,236.36c.62,4.61,3,8.36,4.57,12.65,1.84,5-.48,8.87-.41,13.83,0,3.86,6,3.87,6,0-.07-5,2.22-8.88.68-14-1.45-4.82-4.37-9-5.06-14-.52-3.81-6.3-2.19-5.78,1.59Z"/><path class="a62bb897-fe79-450d-9fac-45f1cafb98c3" d="M202.12,236.53c1.39,9,4.33,16.7,2.83,26-.61,3.78,5.17,5.4,5.78,1.59a49,49,0,0,0,.39-14.41c-.67-5-2.44-9.78-3.21-14.77-.59-3.81-6.37-2.19-5.79,1.59Z"/><path class="a62bb897-fe79-450d-9fac-45f1cafb98c3" d="M209,248.25c-3.67,11.23-4.67,23.26-7.71,34.69-1,3.73,4.79,5.33,5.79,1.59,3-11.42,4-23.46,7.71-34.68,1.2-3.68-4.59-5.26-5.79-1.6Z"/><path class="a62bb897-fe79-450d-9fac-45f1cafb98c3" d="M200.83,284.25l-2.43,7.6c-.75,2.33-1.26,4.87-3.1,6.6-2.82,2.65,1.43,6.89,4.24,4.24,4.3-4,5.35-11.44,7.08-16.84,1.18-3.69-4.61-5.27-5.79-1.6Z"/><path class="a62bb897-fe79-450d-9fac-45f1cafb98c3" d="M215.19,256.87a55.88,55.88,0,0,0-7.08,15.78c-.77,2.91-1.08,6-2,8.82-1.16,3.59-3.38,6.57-5.67,9.51s1.88,7.29,4.24,4.25c3.85-5,6.78-9.52,8.07-15.73a56.2,56.2,0,0,1,7.62-19.6c2.09-3.26-3.1-6.27-5.18-3Z"/><path class="acc47913-4adf-4526-a3cf-c048c6509090" d="M121.71,135.93c19.2-16.73,40.9-34.43,66.36-34.05,6.44.1,13.08,1.37,19.21-.61,5-1.6,9.07-5.17,13.82-7.35,7.28-3.35,15.61-3.23,23.61-3,31.66.7,64.22,1.59,93.33,14,12.27,5.25,24.24,13.09,30.06,25.1,4.67,9.65,4.82,20.77,4.88,31.49.06,11.4-.39,24.11-8.47,32.15-4.08,4.07-9.59,6.32-15,8.2-37.48,12.88-78.61,12-117.37,3.76-32.58-6.94-64.93-27.52-97.25-31.6-8.45-1.07-18.7,4-25.36-2.87C98.18,159.37,113.27,143.3,121.71,135.93Z"/><path class="fac0eed7-c8f5-447a-8a96-6a140f4a58a5" d="M116.34,30.93c2.89-5.24,7.34-11.3,13.25-10.3,2,.35,3.78,1.51,5.74,2.06,7.71,2.13,16.27-5.49,23.39-1.87.37,3.16-.86,6.27-1.11,9.45-.67,8.53,5.58,15.86,11.42,22.11-4.16-.11-7.3,4-8.22,8.06s-.38,8.33-1.13,12.42c-1.35,7.49-6.73,13.49-10.3,20.21s-4.86,16.09.87,21.08c1.4-11.53,12.78-23.55,17.88-34,4.22-8.63,9.78-18.28,6.19-27.19-1-2.4-2.55-4.51-3.47-6.93-2-5.28-.54-11.15,0-16.78s-.5-12.27-5.4-15.09c-5.5-3.17-12.52.28-18.75-.92-3-.58-5.75-2.24-8.79-2.69-2.74-.4-5.52.22-8.23.84-5,1.14-10.26,2.41-14,5.9S112.87,27.15,116.34,30.93Z"/><path class="fac0eed7-c8f5-447a-8a96-6a140f4a58a5" d="M188.07,101.88c4.55-2.48,21.19-11.08,24.46-15.11s5-9.68,3.16-14.53c-1.52-4-5.32-7.32-5.12-11.6.26-5.46,8.85-8,12-3.48q.47,11.57.92,23.14a18.36,18.36,0,0,1-.17,4.32c-.81,4.1-7,11.24-10.24,13.92"/><path class="acc47913-4adf-4526-a3cf-c048c6509090" d="M262.86,91.69c4.61-12.83,18.76-25.43,31.6-30,5.47-1.94,8.55-7.9,13.76-10.45a96,96,0,0,1,6.54,11.51"/><path class="acc47913-4adf-4526-a3cf-c048c6509090" d="M298.2,94.26c22.68-12.11,51.46-25.71,74.13-37.82a5.4,5.4,0,0,1,2.52-.84c2.73,0,3.52,3.64,4.44,6.22,2,5.75,8,8.94,12.41,13.13a30.42,30.42,0,0,1,9.35,20.34c.17,3.32-.3,6.85-2.34,9.46a17.57,17.57,0,0,1-5.8,4.3,285.17,285.17,0,0,1-28.62,13.52"/><path class="acc47913-4adf-4526-a3cf-c048c6509090" d="M239.21,90.28C249.77,81.1,269,66.77,279.53,57.6a32.41,32.41,0,0,1,6.65-4.86c5.59-2.78,12.35-2.18,18-4.77,2.87-1.31,5.54-3.45,8.69-3.49,3.82,0,7.06,3.17,8.3,6.78s.92,7.55.59,11.35l-7.26.15"/><path class="acc47913-4adf-4526-a3cf-c048c6509090" d="M322.08,99.27c6.14-5,15.46-10.46,21.6-15.44,5.74-4.66,11.82-9.48,19.1-10.76s16,2.38,17.66,9.58c.94,4.08.35,9.78,4.35,11-6.79,8.15-13.71,20.78-20.5,28.92"/><path class="acc47913-4adf-4526-a3cf-c048c6509090" d="M180.7,188.87a47,47,0,0,0,.88,28.13,64.54,64.54,0,0,1,2.6,7.7c1.82,8.41-2.09,16.83-4.8,25-5,15.05-6.09,31.08-9.19,46.64-.9,4.53-2.39,9.59-6.52,11.68-.31.17-.75.28-1,0s-.65,1.86-.61,2.21a105.09,105.09,0,0,1,3.29-38.94c1.55-5.56,3.57-11,4.31-16.75.63-4.9.31-9.86.36-14.79.05-5.1.49-10.19.94-15.27l1.93-22.1-.74,1.9a110.19,110.19,0,0,1-9-23"/><path class="acc47913-4adf-4526-a3cf-c048c6509090" d="M193.31,194.36c-1.82,5.18-.28,10.87,1.26,16.14L201.74,235a95.82,95.82,0,0,1,3.8,16.59c1.24,11.52-1.73,23-4.67,34.23-1.68,6.42-3.38,12.86-6.09,18.91,7.08-.32,11.62-7.47,14.66-13.86q5-10.38,9.1-21.09a41.19,41.19,0,0,0,2.78-9.62c1-8.14-2.57-16-5.2-23.8-4.16-12.26-6.1-25.14-8-37.94"/><path class="acc47913-4adf-4526-a3cf-c048c6509090" d="M255.55,211.47c2.69,6.09,5.7,12.54,11.38,16,2.5,1.54,5.37,2.38,8.1,3.48,13.37,5.36,23.6,16.91,37.11,21.93,5.87,2.18,12.41,3.17,17.25,7.14,2.19,1.79,3.93,4.12,6.29,5.68,2.82,1.86,6.27,2.45,9.61,3l11.38,1.87c2.11.35,4.31.73,6,2s2.83,3.68,1.88,5.61c-1.07,2.16-3.93,2.59-6.34,2.61a61.72,61.72,0,0,1-24-4.77c-7.89-3.3-15-8.19-22.44-12.38-6.26-3.51-12.79-6.52-19-10.16a215.84,215.84,0,0,1-20-13.86L245,218.76c-4-3-8.28-6.52-8.85-11.45"/><path class="acc47913-4adf-4526-a3cf-c048c6509090" d="M48.57,202.86c2.56-.76,5-1.86,7.68-2.23,2.11-.29,4.28-.12,6.34-.65,3.75-1,6.54-4,9.94-5.91,8.36-4.57,18.8-1.13,28.17-2.9,8-1.5,14.81-6.71,22.72-8.4,2.89-.61,5.86-.75,8.74-1.37,4.43-1,8.55-3.05,13-4.13s9.51-1,12.92,2c-.3,2,1.33,3.81,1.47,5.83.16,2.36-1.8,4.43-4,5.21s-4.66.53-7,.29l-16.92-1.74c-1.62-.17-3.4-.29-4.71.68-1,.73-1.47,1.93-2.26,2.86-2.46,2.92-6.92,2.58-10.74,2.82-9,.56-16.93,5.52-25.36,8.59a84.53,84.53,0,0,1-23.87,4.51c-5.58.33-11.19.32-16.72,1.1-6.74.94-13.28,3-20,3.91-5.72.76-28.39-1.57-14.49-8.65C23.94,199.35,37.05,206.25,48.57,202.86Z"/></svg>