<svg id="bec1f4fc-9669-4c37-bef9-76be5e21a46b" data-name="Layer 1" xmlns="http://www.w3.org/2000/svg" viewBox="0 0 126 144.74"><defs><style>.acd228bd-6ab9-4dbc-a18a-8da1f8ae7e52{fill:#fff;}.acd228bd-6ab9-4dbc-a18a-8da1f8ae7e52,.b2b951c9-8e6d-4343-a492-70625ab8c76c{stroke:#1d1d1b;stroke-miterlimit:10;}.a2698044-d6c4-424d-acd1-06eae3f902a1{fill:#1d1d1b;}.b2b951c9-8e6d-4343-a492-70625ab8c76c{fill:none;stroke-width:0.5px;}.ba7ba051-50a5-4b7a-be12-70915ef44325{fill:#5db4b3;}</style></defs><title>rabbit</title><path class="acd228bd-6ab9-4dbc-a18a-8da1f8ae7e52" d="M19.12,88.09c-2.66,11.36-7.25,23.61-2.33,34.18,4.32,9.29,14.79,14.09,24.83,16.14a79.53,79.53,0,0,0,49.94-6.17c2.92-1.4,5.84-3,7.88-5.56s3.13-6,3.78-9.27a55,55,0,0,0-4.9-35.14c-1.16-2.26-2.48-4.5-3-7a21.44,21.44,0,0,1,.29-7.44L102.6,22.9c1.24-8,2-17.49-4-22.9C95,1.67,93.75,6,92.93,9.84a561.88,561.88,0,0,0-9.88,63.73,87.72,87.72,0,0,0-48.77,5c2.21-.9,2.91-14.17,3.12-16.48a123.38,123.38,0,0,0,.24-17.41c-.56-11.24-1.13-24.08-4.32-34.91-3.25-11-11.09-8-13,1.8C18.17,22.4,21.48,35.7,22,46.77,22.53,60.59,22.28,74.56,19.12,88.09Z"/><circle class="a2698044-d6c4-424d-acd1-06eae3f902a1" cx="43.3" cy="103.8" r="2.95"/><path class="a2698044-d6c4-424d-acd1-06eae3f902a1" d="M54.07,112.57l9-.65c-1.42,3.27-2.5,5.68-5.24,7.94a13.41,13.41,0,0,1-4.17-7.23"/><path class="b2b951c9-8e6d-4343-a492-70625ab8c76c" d="M57,118.59a5.12,5.12,0,0,1-2.1,7.17,8.47,8.47,0,0,1-3.81.52A30.74,30.74,0,0,1,43.59,125"/><path class="b2b951c9-8e6d-4343-a492-70625ab8c76c" d="M57.77,118.09c-.28,2.92-.33,6.39,2,8.14,1.53,1.14,3.61,1.13,5.51,1a9.83,9.83,0,0,0,5.14-1.33"/><path class="b2b951c9-8e6d-4343-a492-70625ab8c76c" d="M112.75,103.34a247.17,247.17,0,0,0-42.7,12.11c17.4-.57,35.16,2.75,52.47,4.67"/><path class="b2b951c9-8e6d-4343-a492-70625ab8c76c" d="M70,119.54a117.88,117.88,0,0,1,37.58,8.06"/><path class="b2b951c9-8e6d-4343-a492-70625ab8c76c" d="M48.17,116.48a94,94,0,0,0-24.43-4.38"/><path class="b2b951c9-8e6d-4343-a492-70625ab8c76c" d="M46.24,119.68a267.13,267.13,0,0,0-43.36.37"/><path class="b2b951c9-8e6d-4343-a492-70625ab8c76c" d="M40.05,122.72Q26.58,124.2,13.15,126c-2.21.3-4.63.71-6.09,2.4"/><circle class="ba7ba051-50a5-4b7a-be12-70915ef44325" cx="77.67" cy="98.4" r="8.53"/><circle class="a2698044-d6c4-424d-acd1-06eae3f902a1" cx="77.67" cy="100.2" r="2.95"/></svg>