<?xml version="1.0" encoding="utf-8"?>
<!-- Generator: Adobe Illustrator 23.0.1, SVG Export Plug-In . SVG Version: 6.00 Build 0)  -->
<svg version="1.1" xmlns="http://www.w3.org/2000/svg" xmlns:xlink="http://www.w3.org/1999/xlink" x="0px" y="0px"
	 viewBox="0 0 405.1 278.4" style="enable-background:new 0 0 405.1 278.4;" xml:space="preserve">
<style type="text/css">
	.st0{fill:#3DB9BD;}
	.st1{fill:#3EB9BC;}
	.st2{fill:#2D2D2D;stroke:#2D2D2D;stroke-linecap:round;stroke-miterlimit:10;}
	.st3{fill:#FFFFFF;}
	.st4{fill:none;stroke:#FFFFFF;stroke-width:0.5;stroke-miterlimit:10;}
	.st5{fill:#FFFFFF;stroke:#000000;stroke-miterlimit:10;}
	.st6{fill:none;stroke:#000000;stroke-width:0.5;stroke-miterlimit:10;}
	.st7{fill:#FFFFFF;stroke:#000000;stroke-linecap:round;stroke-miterlimit:10;}
	.st8{stroke:#000000;stroke-linecap:round;stroke-miterlimit:10;}
	.st9{fill:#5DB4B3;}
	.st10{fill:none;stroke:#000000;stroke-linecap:round;stroke-miterlimit:10;}
	.st11{opacity:0.7;fill:#3CB9BE;}
	.st12{fill:none;}
	.st13{fill:none;stroke:#000000;stroke-width:0.75;stroke-miterlimit:10;}
	.st14{fill:#FFFFFF;stroke:#000000;stroke-width:0.75;stroke-miterlimit:10;}
	.st15{fill:#FFFFFF;stroke:#000000;stroke-width:0.5;stroke-miterlimit:10;}
	.st16{fill:#FFFFFF;stroke:#000000;stroke-width:0.5;stroke-linecap:round;stroke-miterlimit:10;}
	.st17{fill:none;stroke:#000000;stroke-width:0.5;stroke-linecap:round;stroke-miterlimit:10;}
	.st18{opacity:0.7;fill:#FFFFFF;}
	.st19{opacity:0.7;fill:#3CB9BE;stroke:#000000;stroke-width:0.75;stroke-miterlimit:10;}
	.st20{fill:none;stroke:#000000;stroke-width:0.75;stroke-linecap:round;stroke-miterlimit:10;}
	.st21{display:none;fill:none;stroke:#000000;stroke-width:0.75;stroke-miterlimit:10;}
	.st22{fill:#F0E527;}
	.st23{fill:#81CACD;stroke:#000000;stroke-miterlimit:10;}
	.st24{fill:none;stroke:#000000;stroke-miterlimit:10;}
	.st25{fill:#81CACD;}
	.st26{fill:none;stroke:#000000;stroke-width:3;stroke-miterlimit:10;}
	.st27{fill:#81CACD;stroke:#000000;stroke-width:3;stroke-miterlimit:10;}
	.st28{fill:#3CB9BE;stroke:#000000;stroke-width:0.5;stroke-miterlimit:10;}
	.st29{display:none;}
	.st30{display:inline;fill:#C7C6C6;stroke:#000000;stroke-width:0.75;stroke-miterlimit:10;}
	.st31{display:inline;}
</style>
<g id="Layer_1">
	<rect x="-181.9" y="-150" class="st0" width="792" height="612"/>
	<g>
		<path class="st2" d="M256.4,74.7c-3,9.5-4.9,19.7-3.6,29.7c1.3,10,6.1,19.9,14.1,25.5c13.7,9.6,33.2,4,44.2-8.6
			c15.5-17.7,16.9-45.5,9.1-68.4c-2.2-6.5-5.4-13.2-11.2-16.4C280.5,20.4,263.6,51.6,256.4,74.7z"/>
		<path class="st2" d="M311.8,38.4c5.8-4.4,12.1-7.2,18.9-4.4c2.1,0.8,3.9,2.3,5.6,3.8c3.3,2.7,6.6,5.5,9.8,8.2
			c4.7,3.9,9.4,7.9,13.1,12.8c3.7,4.9,6.3,11,6.1,17.3c0,1-0.2,2.1-0.7,2.9c-0.6,0.8-1.5,1.3-2.3,1.8c-4.7,2.4-10.4,4.4-14.9,1.5
			c-2.1-1.3-3.4-3.5-4.9-5.6c-6.3-9.1-12.6-15.9-21.6-22"/>
		<path class="st2" d="M280.2,36.3c-4.6,0.4-12.1-0.4-16.6-0.1c-16.4,1.1-31.9,11.3-40,26.2c-1.3,2.4-2.5,4.9-2.8,7.7
			c-0.6,5,1.6,10,3.8,14.6c0.5,1.1,1,2.1,1.8,3c1.8,1.9,4.7,2.2,7.1,1.3s4.2-2.9,5.7-5c4.9-6.7,7.1-15.1,11.8-21.9
			c4.2-6.1,9.9-10.5,16.8-12.6"/>
	</g>
	<g>
		<g>
			<path class="st2" d="M64.5,196.9l19.6-55.7h15.4l-27.8,74.9h-15L29,141.2h16L64.5,196.9z"/>
			<path class="st2" d="M128.7,197.7l11.7,3.5c-1.4,4.8-4.2,8.7-8.3,11.8c-4.1,3.1-9.2,4.7-15.4,4.7c-7.5,0-13.8-2.5-19-7.6
				c-5.2-5-7.8-11.8-7.8-20.2c0-8,2.5-14.6,7.6-19.7c5.1-5.1,11.1-7.7,18-7.7c8,0,14.3,2.4,18.9,7.2c4.5,4.8,6.8,11.4,6.8,19.8
				c0,0.6,0,1.2-0.1,1.9c0,0.7-0.1,1.3-0.1,1.7l-0.1,0.7h-37.2c0.1,3.4,1.5,6.2,4,8.5c2.5,2.3,5.6,3.4,9.1,3.4
				C122.8,205.6,126.8,203,128.7,197.7z M104,184.2h23.3c-0.1-2.9-1.2-5.3-3.1-7.3c-1.9-2-4.8-3-8.5-3c-3.4,0-6.1,1.1-8.2,3.2
				C105.3,179.2,104.2,181.6,104,184.2z"/>
			<path class="st2" d="M162.1,148.6v15.5h10.5v12.5h-10.5v21.8c0,2.2,0.5,3.7,1.5,4.7c1,0.9,2.5,1.4,4.7,1.4c1.9,0,3.3-0.1,4.3-0.4
				v11.6c-2,0.8-4.7,1.3-7.9,1.3c-5.1,0-9.1-1.4-12-4.3c-3-2.9-4.4-6.8-4.4-11.8v-24.2h-9.4v-12.5h2.6c2.6,0,4.6-0.8,6-2.3
				c1.4-1.5,2.1-3.5,2.1-6v-7.3H162.1z"/>
			<path class="st3" d="M223.2,165.3l-21.7,21.5l22.1,29.4h-12.5l-16.6-22.4l-7.1,7.1v15.3h-9.8v-76.5h9.8v48.2l22-22.5H223.2z"/>
			<path class="st3" d="M225.4,151.1c-1.4-1.4-2.1-3-2.1-5c0-2,0.7-3.7,2.1-5.1c1.4-1.4,3-2.1,5-2.1s3.7,0.7,5.1,2.1
				c1.4,1.4,2.1,3.1,2.1,5.1c0,2-0.7,3.6-2.1,5c-1.4,1.4-3.1,2.1-5.1,2.1S226.8,152.4,225.4,151.1z M235.4,216.1h-9.8v-50.8h9.8
				V216.1z"/>
			<path class="st3" d="M254.8,186.7v29.4h-9.9v-50.8h9.7v7.3c3.4-5.8,8.6-8.8,15.6-8.8c5.8,0,10.3,1.9,13.5,5.6
				c3.1,3.7,4.7,8.6,4.7,14.5v32.2h-9.9v-30.5c0-8.5-3.9-12.8-11.8-12.8c-3.7,0-6.6,1.3-8.7,4C255.8,179.4,254.8,182.7,254.8,186.7z
				"/>
			<path class="st3" d="M332.3,209.2v-0.8c-1.3,2.6-3.4,4.8-6.1,6.5c-2.7,1.7-5.9,2.6-9.7,2.6c-7.3,0-13.1-2.6-17.5-7.7
				c-4.4-5.1-6.6-11.5-6.6-19.3c0-7.4,2.3-13.7,6.8-18.9c4.5-5.2,10.3-7.8,17.3-7.8c4.2,0,7.5,0.8,10.1,2.5c2.6,1.7,4.4,3.7,5.4,6.1
				v-32.9h9.8v67.1c0,3.5,0.2,6.6,0.5,9.4h-9.6C332.5,214.1,332.3,211.8,332.3,209.2z M302.6,190.5c0,5.4,1.3,9.7,4,13.1
				c2.6,3.4,6.3,5.1,10.9,5.1c4.4,0,8-1.7,10.7-5.2c2.7-3.5,4-7.9,4-13.2c0-5.3-1.3-9.5-3.9-12.8c-2.6-3.2-6.2-4.9-10.7-4.9
				c-4.5,0-8.1,1.7-10.9,5C304,181,302.6,185.2,302.6,190.5z"/>
		</g>
	</g>
	<g>
		<path d="M127,239.9v10.9h-2.7v-24.2h2.7v10.9h6v-10.9h2.7v24.2H133v-10.9H127z"/>
		<path d="M141.7,232.4c0-3.7,1.8-6.1,5.5-6.1c3.7,0,5.6,2.4,5.6,6.1V245c0,3.7-1.8,6.1-5.6,6.1c-3.7,0-5.5-2.4-5.5-6.1V232.4z
			 M144.4,245.1c0,2.2,0.9,3.5,2.9,3.5c2,0,2.9-1.3,2.9-3.5v-12.8c0-2.2-0.9-3.5-2.9-3.5c-1.9,0-2.9,1.3-2.9,3.5V245.1z"/>
		<path d="M167.8,250.8h-2.6l-4-19.3v19.3h-2.4v-24.2h3.8l4,19.4l3.8-19.4h3.8v24.2h-2.6v-19.5L167.8,250.8z"/>
		<path d="M189,237.3v2.4h-5.9v8.6h7.3v2.5h-10v-24.2h10v2.5h-7.3v8.3H189z"/>
		<path d="M207.2,226.6l3.9,21.1l3.9-21.1h2.5l-4.5,24.2h-4l-4.6-24.2H207.2z"/>
		<path d="M225.8,226.6v24.2h-2.7v-24.2H225.8z"/>
		<path d="M242.5,232.4v0.7h-2.6v-0.8c0-2.2-0.8-3.5-2.8-3.5c-1.9,0-2.8,1.3-2.8,3.4c0,5.4,8.1,6,8.1,12.8c0,3.7-1.8,6.1-5.5,6.1
			c-3.7,0-5.4-2.4-5.4-6.1v-1.4h2.5v1.5c0,2.2,0.9,3.5,2.8,3.5s2.8-1.3,2.8-3.5c0-5.4-8.1-5.9-8.1-12.7c0-3.7,1.7-6.1,5.4-6.1
			C240.8,226.3,242.5,228.7,242.5,232.4z"/>
		<path d="M251.1,226.6v24.2h-2.7v-24.2H251.1z"/>
		<path d="M260.8,250.8V229h-4.5v-2.5h11.6v2.5h-4.5v21.8H260.8z"/>
		<path d="M284.1,226.6l3.9,21.1l3.9-21.1h2.5l-4.5,24.2h-4l-4.6-24.2H284.1z"/>
		<path d="M308.6,237.3v2.4h-5.9v8.6h7.3v2.5h-10v-24.2h10v2.5h-7.3v8.3H308.6z"/>
		<path d="M319.4,250.8V229h-4.5v-2.5h11.6v2.5h-4.5v21.8H319.4z"/>
		<path d="M342.3,232.4v0.7h-2.6v-0.8c0-2.2-0.8-3.5-2.8-3.5c-1.9,0-2.8,1.3-2.8,3.4c0,5.4,8.1,6,8.1,12.8c0,3.7-1.8,6.1-5.5,6.1
			c-3.7,0-5.4-2.4-5.4-6.1v-1.4h2.5v1.5c0,2.2,0.9,3.5,2.8,3.5c1.9,0,2.8-1.3,2.8-3.5c0-5.4-8.1-5.9-8.1-12.7c0-3.7,1.7-6.1,5.4-6.1
			C340.6,226.3,342.3,228.7,342.3,232.4z"/>
	</g>
	<g>
		<g>
			<g>
				<path class="st3" d="M204,62.9c-0.3,0-0.6,0-0.9,0c-0.3,0-0.6,0-0.9,0c-0.3,0-0.6,0-0.9,0c-0.3,0-0.6,0-0.9,0
					c-0.3,0-0.6,0-0.9,0c-0.3,0-0.6,0-0.9,0.1s-0.6,0-0.9,0.1c-0.3,0-0.6,0.1-0.9,0.1s-0.6,0.1-0.9,0.1c-0.3,0-0.6,0.1-0.9,0.1
					c-0.3,0-0.6,0.1-0.9,0.1c-0.3,0.1-0.6,0.1-0.9,0.2c-0.3,0.1-0.6,0.1-0.9,0.2c-0.3,0.1-0.6,0.1-0.9,0.2c-0.3,0.1-0.6,0.1-0.9,0.2
					c-0.3,0.1-0.6,0.2-0.9,0.2c-0.3,0.1-0.6,0.2-0.9,0.3c-0.3,0.1-0.6,0.2-0.9,0.3c-0.3,0.1-0.6,0.2-0.9,0.3
					c-0.3,0.1-0.6,0.2-0.9,0.3c-0.3,0.1-0.6,0.2-0.8,0.3c-0.3,0.1-0.6,0.2-0.8,0.3c-0.3,0.1-0.5,0.2-0.8,0.3s-0.5,0.2-0.8,0.4
					c-0.3,0.1-0.5,0.2-0.8,0.4s-0.5,0.3-0.8,0.4c-0.3,0.1-0.5,0.3-0.8,0.4c-0.3,0.1-0.5,0.3-0.8,0.4s-0.5,0.3-0.7,0.4l0.1-0.1
					c-8.6-5.5-17.4-6.8-27.6-6.4c-0.4,10.3,3.9,20.9,11.1,28.3l0-0.1c0,0.2-0.1,0.5-0.1,0.7s-0.1,0.5-0.1,0.7c0,0.2-0.1,0.5-0.1,0.7
					c0,0.2,0,0.5,0,0.7c0,0.2,0,0.5,0,0.7c0,0.2,0,0.5,0,0.7c0,0.2,0,0.5,0,0.7c0,0.2,0,0.5,0,0.7c0,0.2,0,0.5,0.1,0.7
					c0,0.2,0.1,0.5,0.1,0.7c0,0.2,0.1,0.5,0.1,0.7c0,0.2,0.1,0.5,0.1,0.7c0,0.2,0.1,0.5,0.2,0.7c0.1,0.2,0.1,0.5,0.2,0.7
					s0.1,0.5,0.2,0.7s0.2,0.4,0.3,0.7s0.2,0.4,0.3,0.6c0.1,0.2,0.2,0.4,0.3,0.6c0.1,0.2,0.2,0.4,0.4,0.6s0.2,0.4,0.4,0.6
					c0.1,0.2,0.3,0.4,0.4,0.6c0.1,0.2,0.3,0.4,0.4,0.5s0.3,0.4,0.5,0.5s0.3,0.3,0.5,0.5c0.2,0.2,0.3,0.3,0.5,0.5s0.3,0.3,0.5,0.5
					c0.2,0.2,0.4,0.3,0.5,0.5c0.2,0.2,0.4,0.3,0.6,0.5c0.2,0.1,0.4,0.3,0.6,0.4s0.4,0.3,0.6,0.4s0.4,0.3,0.6,0.4
					c0.2,0.1,0.4,0.3,0.6,0.4c0.2,0.1,0.4,0.3,0.6,0.4s0.4,0.3,0.7,0.4c0.2,0.1,0.4,0.3,0.7,0.4s0.5,0.3,0.7,0.4
					c0.2,0.1,0.5,0.2,0.7,0.4c0.2,0.1,0.5,0.2,0.7,0.4s0.5,0.2,0.7,0.4c0.2,0.1,0.5,0.2,0.7,0.3c0.2,0.1,0.5,0.2,0.7,0.3
					c0.2,0.1,0.5,0.2,0.7,0.3c0.2,0.1,0.5,0.2,0.7,0.3s0.5,0.2,0.7,0.3c0.2,0.1,0.5,0.2,0.7,0.3s0.5,0.2,0.7,0.3
					c0.2,0.1,0.5,0.2,0.7,0.3c0.2,0.1,0.5,0.2,0.7,0.3s0.5,0.2,0.7,0.3c0.2,0.1,0.5,0.2,0.7,0.3c0.2,0.1,0.5,0.2,0.7,0.3
					c0.2,0.1,0.5,0.2,0.7,0.3s0.5,0.2,0.7,0.3c0.2,0.1,0.5,0.2,0.7,0.3c0.2,0.1,0.5,0.2,0.7,0.3c0.2,0.1,0.5,0.2,0.7,0.3
					c0.2,0.1,0.5,0.2,0.7,0.3c0.2,0.1,0.5,0.2,0.7,0.2c0.2,0.1,0.5,0.2,0.7,0.2c0.2,0.1,0.5,0.1,0.7,0.2c0.2,0.1,0.5,0.1,0.7,0.2
					c0.2,0.1,0.5,0.1,0.7,0.2c0.2,0.1,0.5,0.1,0.7,0.2c0.2,0.1,0.5,0.1,0.8,0.1c0.3,0,0.5,0.1,0.8,0.1c0.3,0,0.5,0.1,0.8,0.1
					c0.3,0,0.5,0.1,0.8,0.1c0.3,0,0.5,0,0.8,0.1c0.3,0,0.5,0,0.8,0c0.3,0,0.5,0,0.8,0c0.3,0,0.5,0,0.8,0s0.6,0,0.8,0
					c0.3,0,0.6,0,0.8-0.1c0.3,0,0.6-0.1,0.9-0.1s0.6-0.1,0.9-0.1c0.3,0,0.6-0.1,0.9-0.2c0.3-0.1,0.6-0.1,0.9-0.2s0.6-0.1,0.9-0.2
					s0.6-0.2,0.9-0.2c0.3-0.1,0.6-0.2,0.8-0.3c0.3-0.1,0.6-0.2,0.8-0.3c0.3-0.1,0.5-0.2,0.8-0.3c0.3-0.1,0.5-0.2,0.8-0.3
					c0.3-0.1,0.5-0.2,0.8-0.4c0.2-0.1,0.5-0.2,0.7-0.4c0.2-0.1,0.5-0.3,0.7-0.4c0.2-0.1,0.5-0.3,0.7-0.4c0.2-0.1,0.5-0.3,0.7-0.4
					c0.2-0.1,0.4-0.3,0.7-0.4c0.2-0.2,0.4-0.3,0.6-0.5c0.2-0.2,0.4-0.3,0.6-0.5c0.2-0.2,0.4-0.3,0.6-0.5c0.2-0.2,0.4-0.3,0.6-0.5
					c0.2-0.2,0.4-0.3,0.6-0.5s0.4-0.4,0.6-0.5s0.4-0.4,0.6-0.5c0.2-0.2,0.4-0.4,0.5-0.6c0.2-0.2,0.4-0.4,0.5-0.6s0.4-0.4,0.5-0.6
					c0.2-0.2,0.3-0.4,0.5-0.6c0.2-0.2,0.3-0.4,0.5-0.6c0.2-0.2,0.3-0.4,0.5-0.6s0.3-0.4,0.5-0.6c0.2-0.2,0.3-0.4,0.5-0.6
					c0.2-0.2,0.3-0.4,0.5-0.6s0.3-0.4,0.5-0.6c0.2-0.2,0.3-0.4,0.5-0.6c0.2-0.2,0.3-0.4,0.5-0.6s0.3-0.4,0.5-0.6
					c0.2-0.2,0.3-0.4,0.5-0.6s0.3-0.4,0.5-0.6c0.2-0.2,0.3-0.4,0.5-0.6c0.2-0.2,0.3-0.4,0.5-0.6c0.2-0.2,0.3-0.4,0.5-0.6
					s0.3-0.4,0.5-0.6c0.2-0.2,0.3-0.4,0.5-0.6c0.2-0.2,0.3-0.4,0.5-0.6c0.1-0.2,0.3-0.4,0.4-0.6c0.1-0.2,0.3-0.4,0.4-0.6
					s0.3-0.4,0.4-0.6c0.1-0.2,0.3-0.4,0.4-0.6c0.1-0.2,0.3-0.4,0.4-0.6c0.1-0.2,0.3-0.4,0.4-0.6s0.2-0.4,0.4-0.6
					c0.1-0.2,0.2-0.4,0.3-0.6c0.1-0.2,0.2-0.4,0.3-0.6c0.1-0.2,0.2-0.4,0.3-0.6c0.1-0.2,0.2-0.4,0.3-0.6c0.1-0.2,0.2-0.4,0.2-0.7
					s0.2-0.4,0.2-0.7c0.1-0.2,0.1-0.4,0.2-0.7c0.1-0.2,0.1-0.4,0.2-0.7c0-0.2,0.1-0.4,0.1-0.7s0.1-0.5,0.1-0.7
					c0-0.2,0.1-0.5,0.1-0.7c0-0.2,0-0.5,0-0.7s0-0.5,0-0.7c0-0.2,0-0.5,0-0.7c0-0.2,0-0.5-0.1-0.7s-0.1-0.5-0.1-0.7
					c0-0.2-0.1-0.5-0.1-0.7c-0.1-0.2-0.1-0.5-0.2-0.7c-0.1-0.2-0.1-0.5-0.2-0.7c-0.1-0.2-0.1-0.5-0.2-0.7c-0.1-0.2-0.2-0.5-0.2-0.7
					s-0.2-0.5-0.3-0.7c-0.1-0.2-0.2-0.4-0.3-0.7s-0.2-0.4-0.3-0.7s-0.2-0.4-0.3-0.6c-0.1-0.2-0.2-0.4-0.3-0.6
					c-0.1-0.2-0.2-0.4-0.4-0.6c-0.1-0.2-0.3-0.4-0.4-0.6s-0.3-0.4-0.4-0.6s-0.3-0.4-0.4-0.6c-0.1-0.2-0.4-0.6-0.6-0.8
					c3.2-9.8,2.3-21-2.6-30.1c-9.3,4.1-17,9.8-22.2,18.5"/>
				<path class="st3" d="M242.4,103.6c-8.7-2.9-21.8-5.5-32.6-4.2l-1.7,0.2l1.6-0.8c10.6-5.1,22.3-7.6,34.1-7.3l0,0.6
					c-11.1-0.3-22.2,1.9-32.3,6.5c10.5-0.9,22.9,1.6,31.2,4.4L242.4,103.6z"/>
				<path class="st3" d="M161.7,122.5l-0.4-0.4c6.2-6.2,16.2-13.9,26-17.8c-11.1,0.4-22,3.3-31.8,8.5l-0.3-0.5
					c10.4-5.5,22-8.5,33.8-8.6l1.7,0l-1.6,0.6C178.8,107.9,168.2,116.1,161.7,122.5z"/>
			</g>
		</g>
		<path class="st4" d="M211.9,99.7c10,2.2,19.5,6.6,27.5,12.9"/>
		<path class="st4" d="M187.4,107.4c-6.2,4.9-11.5,11-15.7,17.7"/>
	</g>
</g>
<g id="Layer_3">
</g>
<g id="Layer_2" class="st29">
</g>
<g id="Layer_5">
</g>
<g id="Layer_4">
</g>
</svg>
